<svg width="578" height="464" viewBox="0 0 578 464" fill="none" xmlns="http://www.w3.org/2000/svg">
<path opacity="0.1" d="M355.439 60.2673C330.674 81.2893 298.553 79.9293 270.404 68.9893C242.255 58.0493 216.399 38.5813 188.973 24.7393C166.534 13.3137 142.362 5.67348 117.432 2.12731C82.4784 -2.72369 43.4444 3.19831 19.0914 37.1673C-8.02958 75.0133 -5.94659 143.267 23.3754 177.99C38.2984 195.66 57.8374 204.334 74.8754 218.149C91.9134 231.964 107.693 254.859 106.242 281.493C104.898 306.124 89.2794 325.063 73.1144 336.933C60.6224 346.105 45.2384 356.123 43.7344 375.127C42.2784 393.509 55.2144 407.918 67.5674 416.11C107.867 442.834 157.523 442.577 197.681 415.435C211.999 405.749 225.15 392.866 240.169 385.327C279.605 365.515 323.062 385.455 364.822 392.754C400.375 398.908 436.917 395.682 470.841 383.394C491.52 375.989 512.279 364.653 526.806 343.578C537.285 328.371 543.812 309.122 549.937 290.113C556.471 269.847 562.751 249.435 568.779 228.879C572.393 216.537 575.954 203.959 576.891 190.76C578.583 166.836 571.451 143.185 561.738 122.999C538.675 75.0623 499.834 41.3533 457.769 32.7933C415.704 24.2333 371.203 40.9533 338.578 77.5463" fill="#6C63FF"/>
<path opacity="0.1" d="M262.126 291.336C329.248 291.336 383.662 288.853 383.662 285.789C383.662 282.726 329.248 280.242 262.126 280.242C195.003 280.242 140.59 282.726 140.59 285.789C140.59 288.853 195.003 291.336 262.126 291.336Z" fill="#6C63FF"/>
<path d="M258.04 262.882C236.247 262.884 214.943 256.424 196.821 244.318C178.7 232.212 164.576 215.004 156.234 194.87C147.893 174.737 145.709 152.582 149.96 131.207C154.21 109.833 164.703 90.1988 180.112 74.7881C195.522 59.3773 215.155 48.8822 236.529 44.6297C257.903 40.3773 280.058 42.5587 300.192 50.898C320.327 59.2374 337.536 73.36 349.644 91.4801C361.751 109.6 368.214 130.904 368.214 152.697C368.181 181.908 356.564 209.913 335.909 230.57C315.255 251.226 287.251 262.846 258.04 262.882ZM258.04 43.5818C236.459 43.5828 215.364 49.983 197.421 61.9732C179.478 73.9633 165.493 91.0049 157.235 110.943C148.977 130.881 146.817 152.82 151.028 173.986C155.239 195.151 165.631 214.593 180.891 229.852C196.151 245.112 215.593 255.504 236.759 259.713C257.925 263.923 279.864 261.762 299.801 253.504C319.739 245.245 336.78 231.26 348.77 213.316C360.759 195.373 367.159 174.277 367.159 152.697C367.126 123.767 355.619 96.0316 335.162 75.5757C314.705 55.1198 286.97 43.614 258.04 43.5828V43.5818Z" fill="white"/>
<path d="M258.048 238.156C241.146 238.156 224.623 233.144 210.57 223.754C196.516 214.364 185.563 201.017 179.095 185.402C172.627 169.786 170.935 152.603 174.232 136.026C177.529 119.449 185.668 104.222 197.62 92.2704C209.571 80.3188 224.799 72.1797 241.376 68.8823C257.953 65.5849 275.136 67.2773 290.751 73.7454C306.367 80.2135 319.713 91.1669 329.104 105.22C338.494 119.274 343.506 135.796 343.506 152.698C343.478 175.355 334.466 197.075 318.445 213.096C302.425 229.116 280.704 238.129 258.048 238.156ZM258.048 68.3113C241.358 68.3113 225.042 73.2605 211.165 82.5331C197.288 91.8056 186.472 104.985 180.084 120.405C173.697 135.824 172.026 152.792 175.282 169.161C178.538 185.531 186.576 200.567 198.377 212.369C210.179 224.171 225.215 232.208 241.585 235.464C257.954 238.72 274.922 237.049 290.341 230.662C305.761 224.275 318.941 213.459 328.213 199.581C337.486 185.704 342.435 169.388 342.435 152.698C342.409 130.325 333.51 108.876 317.69 93.056C301.87 77.2359 280.421 68.337 258.048 68.3113Z" fill="white"/>
<path d="M258.045 211.597C246.395 211.597 235.008 208.142 225.321 201.67C215.635 195.198 208.086 186 203.628 175.237C199.17 164.474 198.004 152.632 200.276 141.206C202.549 129.781 208.159 119.286 216.396 111.048C224.633 102.811 235.128 97.2013 246.554 94.9286C257.979 92.656 269.822 93.8224 280.585 98.2804C291.347 102.738 300.546 110.288 307.018 119.974C313.49 129.66 316.945 141.048 316.945 152.697C316.945 168.318 310.739 183.3 299.693 194.346C288.647 205.391 273.666 211.597 258.045 211.597ZM258.045 94.8689C246.607 94.8689 235.426 98.2605 225.917 104.615C216.407 110.969 208.994 120.001 204.618 130.568C200.241 141.135 199.095 152.762 201.327 163.98C203.558 175.198 209.066 185.502 217.153 193.589C225.241 201.677 235.545 207.184 246.763 209.416C257.98 211.647 269.608 210.502 280.175 206.125C290.742 201.748 299.773 194.336 306.128 184.826C312.482 175.316 315.874 164.135 315.874 152.698C315.874 137.361 309.781 122.652 298.936 111.807C288.091 100.962 273.382 94.8689 258.045 94.8689Z" fill="white"/>
<path opacity="0.1" d="M524.727 219.044C528.947 219.044 532.368 217.913 532.368 216.517C532.368 215.122 528.947 213.99 524.727 213.99C520.507 213.99 517.086 215.122 517.086 216.517C517.086 217.913 520.507 219.044 524.727 219.044Z" fill="#6C63FF"/>
<path opacity="0.1" d="M95.5967 357.045C120.449 357.045 140.596 353.739 140.596 349.661C140.596 345.583 120.449 342.277 95.5967 342.277C70.7444 342.277 50.5977 345.583 50.5977 349.661C50.5977 353.739 70.7444 357.045 95.5967 357.045Z" fill="#6C63FF"/>
<g opacity="0.1">
<path opacity="0.1" d="M174.48 145.066H37.1945C35.2936 145.073 33.4725 145.831 32.1283 147.175C30.7842 148.519 30.0261 150.341 30.0195 152.241V238.984C30.0261 240.885 30.7842 242.706 32.1283 244.051C33.4725 245.395 35.2936 246.153 37.1945 246.159H144.895C144.895 246.159 147.685 260.97 138.518 262.565C138.518 262.565 159.047 264.038 155.46 246.159H174.48C176.38 246.153 178.202 245.395 179.546 244.051C180.89 242.706 181.648 240.885 181.655 238.984V152.241C181.648 150.341 180.89 148.519 179.546 147.175C178.202 145.831 176.38 145.073 174.48 145.066Z" fill="black"/>
<g opacity="0.2">
<path opacity="0.2" d="M158.051 168.09H53.6156C51.7439 168.09 50.2266 169.607 50.2266 171.479V171.48C50.2266 173.352 51.7439 174.869 53.6156 174.869H158.051C159.922 174.869 161.44 173.352 161.44 171.48V171.479C161.44 169.607 159.922 168.09 158.051 168.09Z" fill="black"/>
<path opacity="0.2" d="M158.051 198.387H53.6156C51.7439 198.387 50.2266 199.904 50.2266 201.776V201.777C50.2266 203.648 51.7439 205.166 53.6156 205.166H158.051C159.922 205.166 161.44 203.648 161.44 201.777V201.776C161.44 199.904 159.922 198.387 158.051 198.387Z" fill="black"/>
<path opacity="0.2" d="M140.103 213.527H53.6156C51.7439 213.527 50.2266 215.045 50.2266 216.916V216.917C50.2266 218.789 51.7439 220.306 53.6156 220.306H140.103C141.974 220.306 143.492 218.789 143.492 216.917V216.916C143.492 215.045 141.974 213.527 140.103 213.527Z" fill="black"/>
<path opacity="0.2" d="M95.0606 183.238H53.6156C51.7439 183.238 50.2266 184.756 50.2266 186.627V186.628C50.2266 188.5 51.7439 190.017 53.6156 190.017H95.0606C96.9323 190.017 98.4496 188.5 98.4496 186.628V186.627C98.4496 184.756 96.9323 183.238 95.0606 183.238Z" fill="black"/>
</g>
</g>
<path d="M175.679 144.467H38.3898C36.4889 144.473 34.6678 145.231 33.3236 146.576C31.9795 147.92 31.2214 149.741 31.2148 151.642V238.385C31.2214 240.286 31.9795 242.107 33.3236 243.451C34.6678 244.795 36.4889 245.553 38.3898 245.56H146.085C146.085 245.56 148.885 260.371 139.708 261.96C139.708 261.96 160.237 263.433 156.65 245.56H175.68C177.581 245.554 179.402 244.796 180.745 243.452C182.089 242.107 182.846 240.286 182.85 238.385V151.642C182.846 149.741 182.089 147.919 180.745 146.574C179.401 145.23 177.58 144.472 175.679 144.467Z" fill="white"/>
<g opacity="0.2">
<path opacity="0.2" d="M159.25 167.492H54.8148C52.9431 167.492 51.4258 169.009 51.4258 170.881V170.882C51.4258 172.754 52.9431 174.271 54.8148 174.271H159.25C161.121 174.271 162.639 172.754 162.639 170.882V170.881C162.639 169.009 161.121 167.492 159.25 167.492Z" fill="#6C63FF"/>
<path opacity="0.2" d="M159.25 197.789H54.8148C52.9431 197.789 51.4258 199.306 51.4258 201.178V201.179C51.4258 203.051 52.9431 204.568 54.8148 204.568H159.25C161.121 204.568 162.639 203.051 162.639 201.179V201.178C162.639 199.306 161.121 197.789 159.25 197.789Z" fill="#6C63FF"/>
<path opacity="0.2" d="M141.302 212.936H54.8148C52.9431 212.936 51.4258 214.453 51.4258 216.325V216.326C51.4258 218.197 52.9431 219.715 54.8148 219.715H141.302C143.173 219.715 144.691 218.197 144.691 216.326V216.325C144.691 214.453 143.173 212.936 141.302 212.936Z" fill="#6C63FF"/>
<path opacity="0.2" d="M96.2598 182.641H54.8148C52.9431 182.641 51.4258 184.158 51.4258 186.03V186.031C51.4258 187.902 52.9431 189.42 54.8148 189.42H96.2598C98.1315 189.42 99.6488 187.902 99.6488 186.031V186.03C99.6488 184.158 98.1315 182.641 96.2598 182.641Z" fill="#6C63FF"/>
</g>
<path d="M124.718 143.092L117.109 159.273C117.109 159.273 115.985 162.309 115.262 162.873C114.539 163.437 111.342 173.046 111.342 173.046L103.187 185.646L102.652 186.503L99.4393 185.619L97.1953 177.228L97.3343 174.792V174.487C97.3343 174.487 102.383 169.207 103.502 168.806C103.502 168.806 104.38 168.906 106.067 164.817C107.754 160.728 109.28 159.837 109.28 159.837L110.158 156.871L119.614 141.82C119.614 141.82 127.539 130.452 129.697 135.496C131.855 140.54 124.718 143.092 124.718 143.092Z" fill="#FFD2C6"/>
<path d="M93.1263 258.026C93.1005 258.301 93.0127 258.566 92.8693 258.802C91.9913 260.082 87.0273 286.265 87.0273 286.265C87.4273 288.032 86.3103 291.555 85.5813 293.156C84.8523 294.757 83.2573 303.083 83.2573 303.083C83.2573 303.083 82.8573 321.021 81.8223 323.821C80.7873 326.621 82.1543 332.629 82.1543 332.629C82.0543 335.392 83.7123 338.31 84.6973 339.799C84.7723 339.899 84.8313 339.992 84.8903 340.072C85.2113 340.532 85.4253 340.795 85.4253 340.795C85.694 341.332 86.0757 341.806 86.5443 342.182C86.6143 342.241 86.6893 342.294 86.7693 342.353C88.1289 343.269 89.6524 343.914 91.2563 344.253L91.4113 344.285C92.0543 344.43 92.4823 344.485 92.4823 344.485L92.8823 346.627L88.6413 347.505L80.5563 348.04C80.5563 348.04 71.0253 348.763 73.1883 344.517C73.3404 344.227 73.4711 343.926 73.5793 343.617C73.6593 343.417 73.7343 343.199 73.7993 342.985C74.5656 340.034 74.7096 336.956 74.2223 333.947L72.3593 319.517C69.3233 306.066 74.7593 291.09 74.7593 291.09C74.7593 291.09 74.2823 289.89 75.3273 286.849C76.3723 283.808 75.3273 277.163 75.3273 277.163C75.3273 277.163 74.7923 268.596 74.0473 264.35C73.7633 262.568 73.6664 260.76 73.7583 258.958C73.7924 257.9 73.8889 256.845 74.0473 255.799L92.3063 253.379C92.8389 254.871 93.1162 256.442 93.1263 258.026Z" fill="#FFD2C6"/>
<path opacity="0.1" d="M92.8611 346.644L88.6201 347.522L80.5351 348.057C80.5351 348.057 71.0041 348.78 73.1671 344.534C73.3192 344.244 73.4499 343.943 73.5581 343.634C73.6381 343.434 73.7131 343.216 73.7781 343.002C75.4278 343.053 77.057 343.383 78.5971 343.976C81.3121 345.047 83.3571 342.289 83.3571 342.289L84.6741 339.772L84.8671 339.408C85.1881 339.868 85.4021 340.131 85.4021 340.131C85.7175 340.75 86.1788 341.283 86.7461 341.684L86.5211 342.155L85.2411 344.832C85.2411 344.832 86.8791 344.998 89.1231 345.367C89.5561 345.485 90.0178 345.43 90.4113 345.214C90.8047 344.998 91.0992 344.638 91.2331 344.21L91.3881 344.242C92.0311 344.387 92.4591 344.442 92.4591 344.442L92.8611 346.644Z" fill="black"/>
<path d="M96.7851 348.644C96.4641 350.084 87.5381 350.529 87.5381 350.529C87.5381 350.529 82.5691 350.047 81.1771 351.209C79.7851 352.371 75.6831 352.092 75.5231 352.092C75.3631 352.092 73.2051 352.006 72.3591 348.13C71.5401 344.35 73.4591 343.691 73.5591 343.659C75.287 343.683 76.9968 344.015 78.6081 344.639C81.3231 345.71 83.3681 342.958 83.3681 342.958L84.8781 340.072C85.1991 340.532 85.4131 340.795 85.4131 340.795C85.726 341.417 86.1877 341.953 86.7571 342.353L85.2571 345.517C85.2571 345.517 86.8951 345.683 89.1391 346.053C89.4068 346.114 89.6848 346.115 89.9528 346.055C90.2208 345.996 90.4723 345.877 90.689 345.709C90.9058 345.54 91.0823 345.326 91.206 345.08C91.3296 344.835 91.3973 344.566 91.4041 344.291C91.4094 344.211 91.4094 344.13 91.4041 344.05C91.4041 344.05 92.8041 344.45 94.5201 344.934C95.2937 345.157 95.9557 345.661 96.3752 346.348C96.7946 347.035 96.9409 347.855 96.7851 348.644Z" fill="#626696"/>
<path d="M113.598 277.109C113.384 278.389 113.164 281.703 113.164 281.703C113.914 284.477 111.991 291.068 111.991 291.068L111.033 294.816C111.461 299.635 108.393 311.367 108.393 311.367C108.393 311.367 106.337 322.258 105.266 326.959C104.626 329.568 104.813 332.311 105.801 334.809C105.855 334.938 105.887 335.002 105.887 335.002C105.895 335.092 105.916 335.181 105.951 335.264C105.978 335.35 106.021 335.521 106.063 335.644C106.308 336.3 106.671 336.906 107.134 337.432C107.309 337.643 107.501 337.84 107.707 338.021L107.739 338.053C108.744 338.943 109.896 339.652 111.144 340.147L111.679 340.361C112.235 340.571 112.802 340.749 113.379 340.896C113.442 340.914 113.507 340.928 113.572 340.939L113.138 343.456L107.484 342.01L99.9066 339.552L96.1586 337.41C96.1586 337.41 96.2016 337.21 96.2766 336.816V336.752C96.3086 336.586 96.3406 336.388 96.3886 336.163C97.0256 332.897 98.4766 323.633 97.7486 316.833C96.8486 308.4 100.357 296.759 101.213 293.985C101.72 292.401 101.938 290.737 101.856 289.075C100.464 287.04 100.143 278.934 100.143 278.934C100.143 278.934 97.5836 273.697 95.4626 268.145C94.7631 266.332 94.2518 264.452 93.9366 262.534C93.6896 261.182 93.5854 259.808 93.6256 258.434C93.6256 258.434 110.826 242.74 112.709 257.934C112.773 258.469 112.832 258.941 112.891 259.423C114.545 273.313 113.806 275.872 113.598 277.109Z" fill="#FFD2C6"/>
<path opacity="0.1" d="M113.604 340.957L113.17 343.474L107.516 342.028L99.9394 339.57L96.1914 337.427C96.1914 337.427 96.2344 337.227 96.3094 336.833V336.77C96.3414 336.604 96.3734 336.406 96.4214 336.181L96.9564 336.128H96.9994C98.0765 336.028 99.1622 336.174 100.174 336.556C101.406 337.022 103.023 337.556 103.355 337.327C103.928 337.081 104.549 336.972 105.17 337.005L105.957 335.281L106.069 335.02C106.314 335.676 106.677 336.282 107.14 336.807C107.327 337.029 107.529 337.236 107.745 337.429L107.713 338.039L107.67 338.901C108.516 339.442 109.431 339.865 110.39 340.159C110.64 340.221 110.901 340.221 111.15 340.159L111.685 340.372C112.242 340.582 112.809 340.761 113.385 340.909C113.457 340.929 113.53 340.945 113.604 340.957Z" fill="black"/>
<path d="M110.796 346.326C109.216 345.871 105.409 345.148 104.796 345.71C104.183 346.272 98.9065 345.71 98.9065 345.71C98.3523 345.7 97.8102 345.547 97.3327 345.266C96.8552 344.984 96.4586 344.584 96.1815 344.104C95.1105 342.396 95.9725 336.87 95.9725 336.87L96.3635 336.833L97.0165 336.769H97.0595C98.1366 336.666 99.223 336.813 100.234 337.197C101.466 337.658 103.083 338.188 103.415 337.968C103.987 337.72 104.609 337.61 105.23 337.647L106.13 335.66C106.376 336.316 106.739 336.922 107.201 337.448C107.388 337.669 107.59 337.877 107.806 338.069L107.731 339.541C108.577 340.08 109.492 340.501 110.451 340.794C110.683 340.889 110.941 340.9 111.18 340.825C111.418 340.749 111.623 340.593 111.758 340.382C111.803 340.315 111.836 340.241 111.858 340.163C112.568 340.506 113.318 340.756 114.091 340.907C115.075 340.816 116.057 341.083 116.859 341.66C117.66 342.237 118.225 343.084 118.451 344.045C119.245 346.5 112.344 346.776 110.796 346.326Z" fill="#626696"/>
<path opacity="0.1" d="M93.1276 258.024C92.7746 258.124 92.4526 258.224 92.1526 258.318C91.3821 258.555 90.592 258.723 89.7916 258.818C84.7426 259.53 76.4056 259.102 73.7656 258.936C73.7998 257.879 73.8963 256.824 74.0546 255.777L92.3136 253.357C92.8424 254.857 93.1175 256.434 93.1276 258.024Z" fill="black"/>
<path d="M109.04 253.591C109.04 253.591 102.34 254.63 96.8848 255.824C95.0638 256.224 93.3848 256.633 92.1408 257.04C91.369 257.272 90.5793 257.439 89.7798 257.54C83.7078 258.391 72.9238 257.604 72.9238 257.604C69.9628 247.998 76.5238 235.904 76.5238 235.904C76.3688 234.94 77.8888 231.984 77.8888 231.984L77.9158 231.884L78.8478 228.457H103.748L104.053 229.929L104.685 232.929L108.594 251.493L109.04 253.591Z" fill="#626696"/>
<path opacity="0.1" d="M112.899 259.416L112.749 259.48L109.836 260.77C106.682 262.226 97.2424 262.5 93.9444 262.526C93.6974 261.174 93.5932 259.8 93.6334 258.426C93.6334 258.426 110.833 242.732 112.716 257.926C112.779 258.468 112.838 258.934 112.899 259.416Z" fill="black"/>
<path d="M113.356 257.934L112.746 258.202L109.833 259.502C106.62 260.98 96.8803 261.242 93.7703 261.258H92.9513C92.3668 261.21 91.8016 261.026 91.3011 260.72C90.8006 260.415 90.3787 259.996 90.0693 259.498C90.0693 259.305 89.9193 258.357 89.7913 257.544C89.6843 256.891 89.5913 256.328 89.5913 256.328C86.2449 254.894 83.0076 253.217 79.9053 251.311C77.4583 249.646 78.0743 237.811 78.5503 231.863C78.7163 229.812 78.8613 228.463 78.8613 228.463L104.07 229.935L107.604 230.135L109.628 230.585L110.163 230.697C110.163 230.697 111.609 241.267 112.305 242.145C113.001 243.023 112.551 245.99 112.466 247.676C112.463 248.396 112.384 249.114 112.23 249.818C112.768 251.3 113.036 252.867 113.022 254.444C112.91 255.618 113.023 256.803 113.356 257.934Z" fill="#626696"/>
<path d="M86.3759 170.158C92.0804 170.158 96.7049 165.534 96.7049 159.829C96.7049 154.124 92.0804 149.5 86.3759 149.5C80.6713 149.5 76.0469 154.124 76.0469 159.829C76.0469 165.534 80.6713 170.158 86.3759 170.158Z" fill="#FFD2C6"/>
<path d="M81.3503 164.142C81.3503 164.142 82.0683 173.925 80.0703 176.168C77.787 178.458 75.3811 180.623 72.8633 182.652L74.4693 189.297L83.5183 190.342L94.0883 179.049L91.6883 176.088C91.6883 176.088 89.8463 169.839 91.3673 166.718C92.8883 163.597 81.3503 164.142 81.3503 164.142Z" fill="#FFD2C6"/>
<path opacity="0.1" d="M103.191 185.649L102.656 186.506L99.4432 185.623L97.1992 177.232L97.3382 174.796L97.9972 173.848C97.9972 173.848 101.52 173.934 101.365 177.136C101.21 179.947 102.811 184.578 103.191 185.649Z" fill="black"/>
<path opacity="0.1" d="M110.154 231.982C110.154 231.982 107.605 232.55 104.687 232.93C101.769 233.31 98.4011 233.503 97.0191 232.7C94.7011 231.329 82.1391 231.72 78.5351 231.859C78.3277 231.852 78.1201 231.861 77.9141 231.886L78.8461 228.459H103.746L104.051 229.932L107.585 230.132L109.609 230.582C109.951 231.415 110.154 231.982 110.154 231.982Z" fill="black"/>
<path d="M97.3475 174.484C97.3475 174.484 100.87 174.564 100.71 177.766C100.55 180.968 102.632 186.494 102.632 186.494L101.832 188.336C101.832 188.336 100.713 192.818 101.591 193.942C102.469 195.066 105.676 195.061 103.835 204.271C103.835 204.271 103.435 211.157 104.397 213.4C105.359 215.643 105.355 221 106.797 223.247C108.106 225.642 109.232 228.131 110.165 230.695C110.165 230.695 99.7515 233.014 97.0305 231.412C94.3095 229.81 77.5725 230.625 77.5725 230.625C77.5725 230.625 77.6525 227.819 77.5725 227.503C77.4991 227.153 77.4966 226.792 77.5653 226.44C77.634 226.089 77.7725 225.755 77.9725 225.458C78.5075 224.698 79.4125 223.418 78.9305 222.299C78.4485 221.18 80.1305 219.525 79.2515 217.79C78.3725 216.055 77.2975 215.707 77.5115 214.759C77.5582 214.214 77.4956 213.665 77.3273 213.145C77.159 212.624 76.8885 212.143 76.5315 211.728C75.8945 210.928 71.5625 202.465 71.5625 202.465L70.8445 198.497C70.8445 198.497 65.2705 194.412 65.3725 192.489C65.4745 190.566 67.4825 187.906 67.4825 187.906L72.8375 182.643C72.8375 182.643 75.7985 185.856 78.6795 184.726C81.5605 183.596 87.7795 178.242 87.7795 178.242C87.7795 178.242 89.9965 177.042 90.1565 176.164C90.3165 175.286 91.6775 176.084 91.6775 176.084C91.6775 176.084 93.6775 174.984 94.0775 175.372C94.7479 175.725 95.4714 175.965 96.2195 176.084L97.3475 174.484Z" fill="#FFCDE5"/>
<path d="M67.0765 191.164L65.3685 192.497C64.0825 195.235 63.3543 198.202 63.2265 201.225C62.7714 205.771 62.0562 210.286 61.0845 214.75L57.7215 220.763C57.7215 220.763 52.1795 232.363 51.4625 235.445C50.7455 238.527 47.4575 243.734 47.4575 243.734C47.4575 243.734 36.3255 253.734 44.0945 255.514C51.8635 257.294 52.0945 247.552 52.0945 247.552C53.0049 246.575 53.721 245.434 54.2045 244.189C54.4985 242.829 64.3455 225.411 64.3455 225.411C64.3455 225.411 67.7935 220.726 67.0705 218.247C67.0705 218.247 71.5525 207.704 71.5525 205.059C71.4679 202.859 71.2283 200.667 70.8355 198.5L71.5525 192.974L67.0765 191.164Z" fill="#FFD2C6"/>
<path opacity="0.1" d="M90.1407 213.24C90.1407 213.24 82.2907 217.347 80.7707 217.561C79.2507 217.775 87.4157 216.704 87.4157 216.704L90.1407 213.24Z" fill="black"/>
<path opacity="0.1" d="M96.5438 216.441C96.5438 216.441 86.1348 219.964 81.5508 219.322C81.5708 219.322 92.9398 221.485 96.5438 216.441Z" fill="black"/>
<path opacity="0.1" d="M97.1852 217.594C97.1852 217.594 87.8152 223.484 82.2852 222.526C82.2852 222.526 95.1792 225.091 97.1852 223.726L91.4182 222.12C91.4182 222.12 97.8292 218.74 97.1852 217.594Z" fill="black"/>
<path opacity="0.1" d="M86.3908 141.656C85.0466 141.331 83.6487 141.296 82.2898 141.552C80.9309 141.809 79.6421 142.351 78.5088 143.144C76.9028 144.408 75.8318 146.357 74.0268 147.278C73.0716 147.679 72.0936 148.024 71.0978 148.311C69.3414 149.028 67.8777 150.316 66.9424 151.967C66.0071 153.618 65.6546 155.535 65.9418 157.411C66.2258 159.017 66.9698 160.463 67.3338 162.027C67.9868 164.827 67.4138 167.751 66.7018 170.527C64.7269 178.25 61.7287 185.675 57.7868 192.604C57.4728 193.032 57.316 193.556 57.3428 194.087C57.4365 194.443 57.6207 194.77 57.8778 195.035C61.5778 199.319 67.6018 200.78 73.2558 200.973C75.3408 201.19 77.4459 200.84 79.3488 199.961C80.5286 199.283 81.5435 198.352 82.3208 197.236C84.2942 194.542 85.2744 191.248 85.0948 187.914C84.9398 185.237 84.0238 182.514 84.7148 179.914C84.7881 179.551 84.9541 179.213 85.1968 178.934C85.8068 178.313 86.8028 178.474 87.6808 178.372C90.0318 178.099 91.5518 175.62 91.8308 173.272C92.1098 170.924 91.5198 168.555 91.5098 166.193C91.4972 163.065 92.4737 160.014 94.2998 157.476C95.2261 156.476 95.9239 155.286 96.3448 153.99C96.6768 152.303 95.6968 151.061 94.8508 149.706C93.5388 147.628 92.8968 145.206 90.8988 143.618C89.5694 142.622 88.0257 141.95 86.3908 141.656Z" fill="black"/>
<path d="M85.7475 141.015C84.403 140.69 83.0047 140.655 81.6456 140.913C80.2866 141.17 78.998 141.714 77.8656 142.509C76.2596 143.767 75.1885 145.722 73.3835 146.643C72.4303 147.043 71.4539 147.387 70.4595 147.671C68.7027 148.388 67.2384 149.676 66.302 151.326C65.3657 152.977 65.0119 154.895 65.2975 156.771C65.5815 158.377 66.3256 159.823 66.6976 161.392C67.3506 164.192 66.7725 167.111 66.0655 169.892C64.0948 177.614 61.1016 185.039 57.1655 191.969C56.8509 192.395 56.6955 192.918 56.7265 193.447C56.8167 193.805 57.0015 194.132 57.2615 194.395C60.9665 198.679 66.9855 200.14 72.6395 200.333C74.7242 200.551 76.8292 200.204 78.7325 199.326C79.9145 198.646 80.9311 197.713 81.7095 196.594C83.6725 193.904 84.6467 190.619 84.4675 187.294C84.3125 184.617 83.3965 181.894 84.0925 179.294C84.1644 178.931 84.3287 178.594 84.5695 178.314C85.1795 177.693 86.1756 177.854 87.0596 177.779C89.4106 177.506 90.9255 175.027 91.2035 172.679C91.4815 170.331 90.8985 167.967 90.8825 165.6C90.8626 162.464 91.8372 159.403 93.6665 156.856C94.5926 155.854 95.2889 154.663 95.7065 153.365C96.0385 151.678 95.0635 150.442 94.2175 149.081C92.9055 147.003 92.2635 144.581 90.2605 142.998C88.9327 141.992 87.3867 141.312 85.7475 141.015Z" fill="#985C7E"/>
<path opacity="0.1" d="M82.2891 241.133C82.2891 241.133 84.3451 250.739 87.7611 253.357L82.2891 241.133Z" fill="black"/>
<g opacity="0.1">
<path opacity="0.1" d="M65.9098 158.914C65.8028 158.539 65.6798 158.164 65.5508 157.795C65.6578 158.169 65.7808 158.544 65.9098 158.914Z" fill="black"/>
<path opacity="0.1" d="M95.1206 150.528C95.1453 150.829 95.1309 151.132 95.0776 151.428C94.6547 152.726 93.9572 153.916 93.0326 154.919C91.2049 157.455 90.2281 160.506 90.2426 163.631C90.2426 165.998 90.8366 168.359 90.5586 170.71C90.2806 173.061 88.7646 175.529 86.4146 175.81C85.5476 175.91 84.5356 175.746 83.9306 176.345C83.688 176.625 83.5219 176.963 83.4486 177.325C82.7686 179.925 83.6736 182.647 83.8236 185.33C84.0045 188.655 83.0324 191.94 81.0716 194.63C80.2931 195.748 79.2785 196.68 78.0996 197.361C76.1894 198.225 74.086 198.572 71.9996 198.368C66.4416 198.181 60.5306 196.762 56.8146 192.633C56.7155 192.878 56.6841 193.144 56.7236 193.404C56.8137 193.763 56.9985 194.09 57.2586 194.352C60.9636 198.636 66.9826 200.097 72.6366 200.29C74.7212 200.509 76.8262 200.161 78.7296 199.283C79.9085 198.602 80.9231 197.67 81.7016 196.552C83.6645 193.863 84.6387 190.578 84.4596 187.252C84.3046 184.575 83.3886 181.852 84.0846 179.247C84.1564 178.885 84.3207 178.547 84.5616 178.267C85.1716 177.646 86.1676 177.807 87.0516 177.732C89.4026 177.459 90.9176 174.98 91.1956 172.632C91.4736 170.284 90.8906 167.92 90.8746 165.553C90.8613 162.429 91.8357 159.38 93.6586 156.841C94.5847 155.84 95.2809 154.649 95.6986 153.35C95.8675 152.369 95.6612 151.36 95.1206 150.523V150.528Z" fill="black"/>
</g>
<path opacity="0.1" d="M231.197 463.989C239.161 463.989 245.617 462.899 245.617 461.553C245.617 460.208 239.161 459.117 231.197 459.117C223.233 459.117 216.777 460.208 216.777 461.553C216.777 462.899 223.233 463.989 231.197 463.989Z" fill="#6C63FF"/>
<path opacity="0.1" d="M477.149 441.069C485.112 441.069 491.569 439.979 491.569 438.633C491.569 437.288 485.112 436.197 477.149 436.197C469.185 436.197 462.729 437.288 462.729 438.633C462.729 439.979 469.185 441.069 477.149 441.069Z" fill="#6C63FF"/>
<path opacity="0.1" d="M454.102 241.356C477.035 241.356 495.626 238.307 495.626 234.545C495.626 230.784 477.035 227.734 454.102 227.734C431.169 227.734 412.578 230.784 412.578 234.545C412.578 238.307 431.169 241.356 454.102 241.356Z" fill="#6C63FF"/>
<path d="M502.447 100.24C503.433 96.509 503.433 92.5864 502.447 88.8557V83.5017C502.447 83.5017 504.385 73.0017 495.754 66.2657L490.025 61.2167C490.025 61.2167 486.812 58.4647 485.886 58.2877C485.71 58.2496 485.531 58.2229 485.351 58.2077L485.18 58.1077C484.689 57.2648 484.269 56.3816 483.927 55.4677C484.298 55.5146 484.675 55.4759 485.029 55.3546C485.382 55.2332 485.703 55.0325 485.967 54.7677C486.174 54.5314 486.337 54.2606 486.449 53.9677C486.781 53.2237 486.834 52.3237 487.118 51.5317C487.366 50.8879 487.729 50.2946 488.189 49.7807C488.13 49.8807 488.071 49.9677 488.018 50.0647C488.827 49.0577 489.887 48.1907 490.642 47.1247C490.795 46.9157 490.934 46.6976 491.06 46.4717L490.947 46.6057C491.892 44.834 492.464 42.8878 492.628 40.8867C492.775 40.214 492.786 39.5187 492.66 38.8417C492.515 38.3896 492.323 37.9539 492.087 37.5417C490.845 34.9717 490.871 31.7477 488.874 29.6977C487.38 28.1607 485.126 27.6897 482.984 27.4277C480.842 27.1657 478.609 27.0157 476.778 25.8967C476.265 25.5092 475.699 25.1974 475.097 24.9707C474.793 24.8652 474.461 24.8689 474.159 24.9813C473.857 25.0937 473.604 25.3078 473.442 25.5867C473.405 25.7499 473.329 25.9019 473.222 26.0307C473.126 26.086 473.019 26.1182 472.908 26.1246C472.798 26.131 472.687 26.1115 472.585 26.0677L469.747 25.3077L469.779 25.4527H469.709L469.809 25.9027C469.865 25.8947 469.921 25.9056 469.97 25.9337C470.019 25.9619 470.056 26.0055 470.077 26.0577L469.622 26.7577C468.741 26.7417 467.871 26.5602 467.057 26.2227C467.054 26.269 467.054 26.3154 467.057 26.3617H467.025C466.971 27.1617 467.882 27.6847 468.16 28.4397C468.273 28.7694 468.273 29.127 468.16 29.4567C468.042 29.763 467.859 30.0405 467.625 30.2707C466.613 31.2707 465.325 31.0707 464.166 31.7007C464.066 31.7425 463.976 31.8059 463.903 31.8864C463.83 31.967 463.775 32.0627 463.743 32.1667C463.699 32.2448 463.686 32.3364 463.706 32.4237C463.751 32.5445 463.834 32.6476 463.942 32.7177C464.28 32.9897 464.649 33.2197 465.042 33.4027L464.71 33.7237C463.24 35.2204 462.164 37.0576 461.576 39.0715C460.989 41.0853 460.909 43.2133 461.344 45.2655C461.779 47.3178 462.714 49.2305 464.068 50.8332C465.421 52.4359 467.151 53.6787 469.101 54.4507C469.144 54.6707 469.176 54.8947 469.208 55.1357V55.1997L469.24 55.5047L465.412 57.1107C464.835 57.1068 464.271 56.9391 463.786 56.6272C463.3 56.3152 462.914 55.8719 462.67 55.3487C461.781 53.5067 458.638 55.3487 458.638 55.3487C458.638 55.3487 449.038 54.6257 445.487 56.3927C445.487 56.3927 439.758 53.9927 438.954 53.8277C438.15 53.6627 436.935 53.0277 436.368 53.1847C435.801 53.3417 435.078 52.1137 434.676 52.2207C434.274 52.3277 434.141 51.4207 432.823 51.1017C431.505 50.7827 431.045 51.1817 429.61 49.7367C428.175 48.2917 416.379 42.6047 416.379 42.6047L411.057 38.2727L405.408 33.7857L405.308 33.9727C405.276 33.8387 405.238 33.6997 405.201 33.5547C404.646 31.3166 403.946 29.1167 403.107 26.9687C402.743 26.1017 402.572 25.0037 402.095 25.5817C401.795 25.9297 401.281 25.1697 400.489 24.6557C400.326 24.5419 400.14 24.4661 399.943 24.4338C399.747 24.4014 399.546 24.4134 399.355 24.4688C399.164 24.5242 398.988 24.6217 398.839 24.7541C398.691 24.8864 398.574 25.0503 398.497 25.2337C394.097 32.1247 392.527 32.6227 395.075 35.1447C397.34 37.3937 398.85 39.3797 400.703 39.9637L400.923 40.0337C400.883 40.0419 400.841 40.0419 400.8 40.0337L411.509 52.8577C411.509 52.8577 419.252 59.5937 424.579 61.7577C429.906 63.9217 429.5 64.5637 429.5 64.5637C429.5 64.5637 445.633 72.7397 448.134 72.5957C450.635 72.4517 450.153 89.3497 449.103 92.0757C448.053 94.8017 446.361 114.522 446.361 114.522C446.361 114.522 444.755 118.688 446.441 121.574C446.441 121.574 446.816 127.1 446.479 128.422C445.006 130.687 442.913 134.532 442.57 138.488C442.56 138.692 442.538 138.896 442.506 139.098C442.399 139.223 442.27 139.328 442.126 139.409C442.126 139.409 442.265 139.377 442.485 139.302C442.325 140.946 441.966 142.564 441.414 144.121C440.557 146.342 440.111 148.701 440.097 151.082V163.82L439.032 171.72C439.032 171.72 437.742 177.701 439.032 179.093C439.58 179.788 439.834 180.671 439.739 181.551C439.685 182.571 439.975 183.58 440.564 184.416C440.789 184.661 440.953 184.955 441.046 185.274C441.139 185.594 441.158 185.93 441.1 186.258C440.672 187.645 441.732 202.391 441.732 202.391C441.732 202.391 441.421 206.455 440.993 206.675C440.565 206.895 441.711 211.344 441.711 211.344C441.711 211.344 437.352 214.98 438.461 216.907L439.575 218.615L439.281 218.904L439.099 219.086C438.764 218.892 438.374 218.818 437.991 218.877C436.623 220.278 435.158 221.582 433.606 222.777C431.641 224.196 426.292 226.252 426.292 226.252L422.073 226.595H421.993C421.993 226.595 419.974 226.408 421.104 229.535C422.234 232.662 432.348 231.677 432.348 231.677L438.238 230.745C438.238 230.745 448.776 230.793 451.79 230.129C453.054 229.845 453.354 229.176 453.273 228.491L453.241 228.459C453.098 227.808 452.803 227.201 452.379 226.687C452.356 226.655 452.331 226.624 452.304 226.596L452.497 224.454C456.968 221.878 451.233 216.808 451.233 216.808C452.105 214.861 453.097 212.971 454.205 211.148C455.217 209.772 455.212 189.348 455.212 189.348C455.212 189.348 455.747 181.97 454.35 180.248C454.326 179.692 454.453 179.141 454.717 178.651C454.981 178.162 455.373 177.753 455.85 177.469C456.85 176.789 459.855 167.424 462.216 159.649L463.705 168.811C463.705 168.811 463.384 173.191 464.353 174.476C464.534 174.716 464.662 174.991 464.731 175.284C464.8 175.576 464.807 175.88 464.753 176.176C464.517 177.412 464.592 178.687 464.972 179.887C465.08 180.399 465.353 180.861 465.748 181.204C466.61 181.632 466.664 183.158 466.985 183.48C467.306 183.802 469.298 183.025 469.405 184.197C469.466 185.229 469.466 186.264 469.405 187.297L470.053 206.322C470.053 206.322 468.982 207.928 468.763 212.094C468.778 213.274 468.512 214.441 467.987 215.499C467.794 215.813 467.705 216.18 467.734 216.547C467.763 216.915 467.908 217.264 468.148 217.544L468.335 217.758L467.535 218.374C467.219 218.62 466.997 218.967 466.908 219.357C466.818 219.747 466.865 220.156 467.042 220.516C466.785 220.739 466.6 221.034 466.511 221.363C466.422 221.692 466.433 222.04 466.542 222.363C466.581 222.466 466.627 222.566 466.681 222.663C466.078 222.758 465.518 223.034 465.075 223.455C464.281 224.548 463.324 225.512 462.237 226.314C460.656 227.521 459.144 228.815 457.707 230.191C457.031 231.127 456.118 231.866 455.062 232.333C454.804 232.437 454.536 232.516 454.262 232.569C452.12 233.003 452.811 235.219 454.53 235.569C456.249 235.919 461.951 237.679 466.39 236.64C466.934 236.79 467.503 236.827 468.062 236.75C468.62 236.673 469.158 236.482 469.64 236.19C471.695 235.319 473.812 234.603 475.974 234.048C475.974 234.048 478.394 234.048 478.715 233.084C478.802 232.779 478.848 232.464 478.854 232.147L478.924 232.083L478.86 232.024C478.866 231.306 478.81 230.59 478.694 229.882C478.635 229.518 478.566 229.182 478.501 228.924C478.292 228.124 477.912 227.087 477.746 226.648C477.774 226.613 477.799 226.575 477.821 226.536C478.742 224.978 477.211 221.182 477.211 221.182C477.718 220.387 478.333 219.666 479.037 219.04C479.899 218.403 482.159 201.729 482.159 201.729C482.159 201.729 482.052 197.445 483.23 195.529C484.408 193.613 481.624 181.955 481.624 181.955C481.624 181.955 480.441 179.278 480.874 178.319C481.307 177.36 480.44 173.832 480.44 173.832V169.624C480.439 169.121 480.356 168.622 480.194 168.146C479.653 166.783 479.552 165.285 479.905 163.862C480.66 161.94 482.379 150.074 482.379 150.074C482.379 150.074 481.035 144.843 483 140.674C483.159 140.34 483.337 140.016 483.535 139.705C484.991 137.413 484.558 133.344 483.84 130.067C483.728 129.558 483.61 129.067 483.492 128.605C483.438 128.405 483.385 128.219 483.337 128.032L483.567 127.932C483.574 127.649 483.597 127.366 483.637 127.086C484.434 126.931 485.19 126.613 485.858 126.153C486.526 125.692 487.091 125.098 487.519 124.409C487.519 124.409 492.44 118.878 496.798 116.554C501.156 114.23 501.478 110.862 501.478 110.862C500.83 109.738 502.629 105.17 502.629 105.17L502.447 100.24ZM488.274 107.613L483.616 113.013C483.615 113.002 483.615 112.991 483.616 112.981C482.406 111.3 484.746 107.53 484.746 107.53L488.596 98.9037C488.647 99.782 488.475 100.659 488.096 101.453C487.025 102.899 490.029 105.303 490.029 105.303C488.417 105.287 488.257 107.611 488.257 107.611L488.274 107.613Z" fill="url(#paint0_linear)"/>
<path d="M406.226 36.7938L403.688 41.7258C402.882 41.6596 402.087 41.494 401.321 41.2328C400.107 40.8675 398.984 40.2492 398.026 39.4186C397.068 38.588 396.297 37.564 395.763 36.4138C393.493 31.3908 397.251 28.1468 399.002 27.1938C400.753 26.2408 402.375 25.1428 403.687 28.2648C404.513 30.4001 405.204 32.5854 405.754 34.8078C406.044 35.9968 406.226 36.7938 406.226 36.7938Z" fill="#CC818C"/>
<path d="M487.038 62.4947L482.979 68.5507C482.979 68.5507 463.779 77.7067 467.451 66.9447C468.74 63.5661 469.258 59.9421 468.966 56.3377V56.2737C468.87 54.7349 468.351 53.2524 467.466 51.9897C467.466 51.9897 486.18 42.4157 483.396 48.9647C482.829 50.3263 482.601 51.8055 482.732 53.2747C482.964 55.3912 483.652 57.432 484.751 59.2557C485.403 60.4092 486.169 61.4943 487.038 62.4947Z" fill="#CC818C"/>
<path d="M481.222 182.324C481.222 182.324 483.985 193.9 482.828 195.812C481.671 197.724 481.757 201.97 481.757 201.97C481.757 201.97 479.524 218.542 478.673 219.179C477.977 219.807 477.371 220.527 476.873 221.321C476.873 221.321 478.388 225.069 477.473 226.621C477.337 226.86 477.126 227.048 476.873 227.156C475.449 227.756 470.191 225.095 467.197 223.461C466.82 223.26 466.535 222.92 466.404 222.513C466.292 222.194 466.279 221.849 466.366 221.523C466.453 221.196 466.636 220.903 466.891 220.682C466.715 220.323 466.667 219.915 466.755 219.525C466.844 219.135 467.064 218.787 467.378 218.54L468.165 217.93L467.983 217.716C467.745 217.437 467.602 217.09 467.573 216.725C467.544 216.359 467.631 215.994 467.822 215.681C468.337 214.63 468.599 213.473 468.588 212.302C468.802 208.158 469.862 206.567 469.862 206.567L469.225 187.66C469.283 186.634 469.283 185.606 469.225 184.581C469.118 183.414 467.153 184.181 466.837 183.864C466.521 183.547 466.462 182.033 465.616 181.604C465.223 181.264 464.952 180.806 464.845 180.298C464.47 179.105 464.394 177.838 464.625 176.609C464.679 176.315 464.673 176.013 464.606 175.722C464.538 175.431 464.412 175.157 464.234 174.917C463.276 173.643 463.597 169.289 463.597 169.289L462.13 160.189C459.795 167.916 456.824 177.222 455.844 177.896C455.37 178.179 454.981 178.586 454.719 179.072C454.456 179.559 454.331 180.107 454.355 180.659C455.737 182.359 455.206 189.687 455.206 189.687C455.206 189.687 455.206 209.97 454.206 211.351C453.116 213.166 452.136 215.046 451.272 216.979C451.272 216.979 456.964 222.044 452.488 224.598L452.44 224.625C447.873 227.174 438.422 220.063 438.422 220.063L439.407 219.078L439.696 218.789L438.625 217.089C437.525 215.177 441.838 211.569 441.838 211.569C441.838 211.569 440.692 207.109 441.115 206.895C441.538 206.681 441.838 202.644 441.838 202.644C441.838 202.644 440.794 187.989 441.217 186.613C441.28 186.29 441.268 185.957 441.181 185.639C441.094 185.321 440.935 185.028 440.717 184.782C440.138 183.951 439.852 182.951 439.903 181.939C439.996 181.065 439.744 180.189 439.203 179.497C437.929 178.116 439.203 172.167 439.203 172.167L440.274 164.307V151.782C440.273 149.382 440.709 147.001 441.559 144.757C442.2 142.934 442.59 141.032 442.716 139.103C443.064 135.076 445.227 131.162 446.684 128.929C447.455 127.751 448.028 127.044 448.028 127.044L482.013 125.711C482.013 125.711 482.548 127.226 483.084 129.331C483.202 129.791 483.319 130.273 483.427 130.782C484.139 134.048 484.567 138.091 483.127 140.372C482.926 140.678 482.747 140.998 482.592 141.33C480.648 145.469 481.976 150.668 481.976 150.668C481.976 150.668 480.276 162.448 479.534 164.368C479.182 165.773 479.283 167.254 479.823 168.598C479.98 169.071 480.062 169.566 480.064 170.065V174.251C480.064 174.251 480.915 177.751 480.492 178.711C480.069 179.671 481.222 182.324 481.222 182.324Z" fill="#444053"/>
<path opacity="0.1" d="M482.785 140.671C482.587 140.979 482.408 141.299 482.25 141.629L480.338 141.522C480.52 140.537 479.219 131.3 479.219 131.3L483.074 131.08C483.792 134.369 484.225 138.417 482.785 140.671Z" fill="black"/>
<path d="M483.101 140.376C482.9 140.682 482.721 141.003 482.566 141.335L480.649 141.228C480.836 140.243 479.535 131.001 479.535 131.001L483.385 130.787C484.113 134.052 484.541 138.095 483.101 140.376Z" fill="#444053"/>
<path opacity="0.05" d="M483.101 140.376C482.9 140.682 482.721 141.003 482.566 141.335L480.649 141.228C480.836 140.243 479.535 131.001 479.535 131.001L483.385 130.787C484.113 134.052 484.541 138.095 483.101 140.376Z" fill="black"/>
<path opacity="0.1" d="M477.473 226.607C477.336 226.847 477.123 227.035 476.868 227.142C475.444 227.742 470.186 225.081 467.193 223.447C466.816 223.246 466.532 222.906 466.4 222.499C468.1 222.188 469.222 224.105 469.222 224.105C469.507 223.926 469.824 223.806 470.155 223.752C470.487 223.698 470.826 223.711 471.152 223.791C471.479 223.87 471.786 224.014 472.055 224.214C472.325 224.414 472.552 224.667 472.722 224.956C474.184 227.098 477.316 226.198 477.316 226.198C477.316 226.198 477.38 226.342 477.473 226.607Z" fill="black"/>
<path d="M478.356 233.116C478.035 234.069 475.647 234.069 475.647 234.069C473.539 234.661 471.471 235.389 469.457 236.248C468.977 236.53 468.447 236.716 467.895 236.793C467.344 236.87 466.783 236.838 466.244 236.698C461.859 237.71 456.231 235.959 454.534 235.627C452.837 235.295 452.167 233.078 454.266 232.655C454.536 232.6 454.799 232.52 455.053 232.414C456.1 231.947 457.003 231.207 457.666 230.272C459.085 228.906 460.578 227.62 462.137 226.417C463.214 225.622 464.161 224.665 464.944 223.58C467.444 221.374 469.228 224.405 469.228 224.405C469.512 224.226 469.83 224.106 470.161 224.052C470.492 223.998 470.831 224.011 471.158 224.091C471.484 224.17 471.791 224.314 472.061 224.514C472.331 224.714 472.557 224.966 472.728 225.256C474.19 227.398 477.322 226.498 477.322 226.498C477.322 226.498 477.857 227.933 478.147 228.966C478.211 229.228 478.281 229.56 478.34 229.924C478.55 230.977 478.555 232.061 478.356 233.116Z" fill="#FF748F"/>
<path d="M471.054 226.4C471.216 226.4 471.348 226.269 471.348 226.106C471.348 225.944 471.216 225.812 471.054 225.812C470.891 225.812 470.76 225.944 470.76 226.106C470.76 226.269 470.891 226.4 471.054 226.4Z" fill="#575988"/>
<path d="M468.558 228.734C468.72 228.734 468.852 228.603 468.852 228.44C468.852 228.278 468.72 228.146 468.558 228.146C468.395 228.146 468.264 228.278 468.264 228.44C468.264 228.603 468.395 228.734 468.558 228.734Z" fill="#575988"/>
<path d="M466.019 230.834C466.181 230.834 466.313 230.702 466.313 230.54C466.313 230.378 466.181 230.246 466.019 230.246C465.856 230.246 465.725 230.378 465.725 230.54C465.725 230.702 465.856 230.834 466.019 230.834Z" fill="#575988"/>
<path d="M467.331 229.897C467.493 229.897 467.625 229.765 467.625 229.603C467.625 229.44 467.493 229.309 467.331 229.309C467.169 229.309 467.037 229.44 467.037 229.603C467.037 229.765 467.169 229.897 467.331 229.897Z" fill="#575988"/>
<path d="M469.858 227.494C470.021 227.494 470.152 227.363 470.152 227.2C470.152 227.038 470.021 226.906 469.858 226.906C469.696 226.906 469.564 227.038 469.564 227.2C469.564 227.363 469.696 227.494 469.858 227.494Z" fill="#575988"/>
<path d="M478.356 233.117C478.035 234.07 475.647 234.07 475.647 234.07C473.539 234.662 471.471 235.39 469.457 236.249C468.977 236.531 468.447 236.717 467.895 236.794C467.344 236.871 466.783 236.839 466.244 236.699C461.859 237.711 456.231 235.96 454.534 235.628C452.837 235.296 452.167 233.079 454.266 232.656C454.536 232.601 454.799 232.521 455.053 232.415C456.906 233.046 458.841 233.407 460.798 233.486C465.124 233.668 468.551 233.486 468.551 233.486L472.931 232.078C473.76 231.573 474.681 231.239 475.64 231.093C476.605 230.897 477.517 230.5 478.317 229.926C478.534 230.977 478.547 232.06 478.356 233.117Z" fill="#DCE6F2"/>
<path opacity="0.5" d="M467.455 235.863C467.21 235.863 466.966 235.837 466.727 235.788L466.791 235.478C467.682 235.617 468.595 235.49 469.415 235.114C469.811 234.955 470.199 234.777 470.577 234.579C471.026 234.352 471.487 234.15 471.959 233.974L472.393 233.824C472.634 233.744 472.875 233.663 473.105 233.562C473.239 233.509 473.367 233.444 473.496 233.385C473.808 233.221 474.138 233.095 474.481 233.01C474.658 232.976 474.837 232.953 475.017 232.94C475.178 232.929 475.339 232.909 475.499 232.881C475.818 232.803 476.127 232.688 476.42 232.538C476.734 232.378 477.067 232.256 477.411 232.174L477.647 232.131C477.897 232.125 478.137 232.036 478.332 231.879L478.562 232.098C478.32 232.308 478.014 232.43 477.695 232.446L477.476 232.483C477.156 232.561 476.847 232.676 476.555 232.826C476.24 232.986 475.907 233.108 475.564 233.19C475.387 233.225 475.208 233.246 475.029 233.254C474.861 233.266 474.694 233.288 474.529 233.318C474.212 233.398 473.907 233.517 473.619 233.671L473.219 233.853C472.973 233.953 472.726 234.04 472.48 234.121L472.057 234.271C471.596 234.442 471.141 234.656 470.697 234.86C470.253 235.064 469.921 235.229 469.519 235.395C468.866 235.679 468.166 235.838 467.455 235.863Z" fill="#575988"/>
<path opacity="0.1" d="M468.479 183.094C469.17 182.149 470.067 181.373 471.103 180.826C472.138 180.278 473.284 179.974 474.455 179.935C476.261 180.033 478.072 179.89 479.841 179.512C478.578 180.268 477.197 180.811 475.757 181.118C473.296 181.643 470.867 182.303 468.479 183.094Z" fill="black"/>
<path opacity="0.1" d="M469.752 183.84C470.692 183.162 471.756 182.674 472.884 182.405C474.025 182.351 475.026 182.244 475.026 182.244C474.492 182.621 473.901 182.908 473.275 183.095C472.301 183.363 469.752 183.84 469.752 183.84Z" fill="black"/>
<path opacity="0.1" d="M470.176 184.793C470.176 184.793 473.176 185.034 473.207 185.832L470.176 184.793Z" fill="black"/>
<path opacity="0.1" d="M442.242 140.017C442.397 140.044 445.074 137.227 445.262 136.117C445.411 135.415 445.83 134.8 446.429 134.404C446.429 134.404 448.158 135.095 446.616 137.21C445.484 138.576 443.955 139.557 442.242 140.017Z" fill="black"/>
<path opacity="0.1" d="M483.375 48.9319C482.765 50.3779 482.224 50.4849 482.342 51.8879C481.629 52.6402 480.81 53.2843 479.911 53.7999C478.011 54.9299 475.943 57.1359 473.577 57.1359C471.994 57.1391 470.424 56.8429 468.951 56.2629C468.855 54.724 468.336 53.2415 467.451 51.9789C467.451 51.9789 486.148 42.3829 483.375 48.9319Z" fill="black"/>
<path d="M486.242 43.8349C486.242 46.3392 485.499 48.7873 484.108 50.8696C482.717 52.952 480.739 54.575 478.426 55.5336C476.112 56.4921 473.566 56.7431 471.11 56.2549C468.654 55.7666 466.397 54.5609 464.626 52.7904C462.855 51.0198 461.649 48.7639 461.16 46.3078C460.671 43.8516 460.921 41.3057 461.879 38.9917C462.837 36.6778 464.459 34.6998 466.541 33.3079C468.623 31.916 471.071 31.1727 473.575 31.1719C475.238 31.1714 476.885 31.4985 478.422 32.1346C479.959 32.7708 481.355 33.7034 482.532 34.8794C483.708 36.0553 484.641 37.4514 485.278 38.988C485.914 40.5246 486.242 42.1716 486.242 43.8349Z" fill="#CC818C"/>
<path opacity="0.1" d="M487.038 62.4959L482.979 68.5519C482.979 68.5519 463.779 77.7079 467.451 66.9459C468.74 63.567 469.258 59.9426 468.966 56.3379H468.998C469.225 57.1332 469.352 57.9534 469.378 58.7799C469.437 60.4289 469.478 62.5279 473.578 63.2139C475.622 63.6307 477.741 63.4814 479.707 62.7821C481.672 62.0828 483.41 60.8601 484.731 59.2459C485.389 60.404 486.162 61.4929 487.038 62.4959Z" fill="black"/>
<path opacity="0.1" d="M406.226 36.7939L403.688 41.7259C402.881 41.6596 402.086 41.494 401.321 41.2329L401.102 40.9709C402.141 41.3709 405.643 34.7539 405.643 34.7539L405.755 34.8449C406.044 35.9959 406.226 36.7939 406.226 36.7939Z" fill="black"/>
<path opacity="0.1" d="M483.058 129.336C474.858 132.897 446.492 129.871 446.492 129.871C446.581 129.57 446.63 129.258 446.637 128.945C447.408 127.767 447.981 127.06 447.981 127.06L481.966 125.727C481.966 125.727 482.517 127.231 483.058 129.336Z" fill="black"/>
<path d="M469.013 56.6321L465.233 58.2381C464.661 58.2326 464.103 58.0649 463.623 57.7545C463.143 57.4442 462.761 57.004 462.521 56.4851C461.648 54.6541 458.542 56.4851 458.542 56.4851C458.542 56.4851 449.059 55.7681 445.557 57.5241C445.557 57.5241 439.903 55.1311 439.132 54.9751C438.361 54.8191 437.14 54.1751 436.583 54.3381C436.026 54.5011 435.309 53.2991 434.912 53.3801C434.515 53.4611 434.35 52.5801 433.075 52.2661C431.8 51.9521 431.324 52.3461 429.889 50.9111C428.454 49.4761 416.829 43.8221 416.829 43.8221L411.571 39.5381L405.997 35.0781C405.997 35.0781 402.494 41.6851 401.461 41.2851L412.052 54.0291C412.052 54.0291 419.698 60.7221 424.952 62.8691C430.206 65.0161 429.809 65.6591 429.809 65.6591C429.809 65.6591 445.744 73.7821 448.209 73.6261C450.674 73.4701 450.201 90.2731 449.162 92.9831C448.123 95.6931 446.462 115.283 446.462 115.283C446.462 115.283 444.856 119.422 446.537 122.292C446.537 122.292 446.937 128.182 446.537 129.221C446.537 129.221 475.082 132.273 483.178 128.686C483.178 128.686 484.372 115.466 483.178 113.786C481.984 112.106 484.297 108.373 484.297 108.373L489.357 96.9571L501.769 84.4441C501.769 84.4441 503.681 74.0081 495.161 67.3101L489.501 62.2931C489.501 62.2931 486.336 59.5571 485.415 59.3851C484.494 59.2131 484.831 59.3851 484.831 59.3851C483.517 61.0388 481.771 62.2969 479.786 63.0205C477.802 63.744 475.656 63.9048 473.586 63.4851C469.486 62.7941 469.442 60.7061 469.386 59.0511C469.361 58.2326 469.235 57.4203 469.013 56.6321Z" fill="#67647E"/>
<path opacity="0.1" d="M484.568 99.5098C484.568 99.5098 467.043 100.227 463.541 105.727C463.541 105.727 468.082 103.585 472.141 104.212C476.2 104.839 484.568 99.5098 484.568 99.5098Z" fill="black"/>
<path opacity="0.1" d="M465.213 118.718C465.213 118.718 473.496 119.253 475.253 117.524C477.01 115.795 477.009 114.74 477.009 114.74L465.213 118.718Z" fill="black"/>
<path opacity="0.1" d="M486.238 82.6289C486.238 82.6289 479.229 90.9119 487.753 94.4949L486.238 82.6289Z" fill="black"/>
<path opacity="0.1" d="M444.742 66.6191C444.742 66.6191 447.291 71.8191 448.565 72.1661L444.742 66.6191Z" fill="black"/>
<path opacity="0.1" d="M436.143 64.3848C436.143 64.3848 442.515 70.1198 443.709 70.6768C443.709 70.6768 437.096 64.3848 436.143 64.3848Z" fill="black"/>
<path opacity="0.1" d="M461.549 58.8906C461.549 58.8906 455.413 68.0466 459.407 73.6266C459.375 73.6266 457.169 67.0136 461.549 58.8906Z" fill="black"/>
<path d="M477.01 128.27L475.136 130.032L474.874 130.278L472.705 132.329C472.544 132.447 472.394 132.565 472.239 132.672C463.404 139.006 461.632 129.384 461.632 129.384C461.632 129.384 457.732 131.933 457.172 129.861C456.612 127.789 466.272 124.844 467.683 125.004C467.811 125.017 467.94 125.017 468.068 125.004C468.764 124.888 469.434 124.651 470.049 124.304C470.194 124.229 470.338 124.154 470.477 124.074C470.969 123.799 471.447 123.499 471.907 123.174L477.01 128.27Z" fill="#CC818C"/>
<path opacity="0.1" d="M486.561 43.8335C486.561 46.0293 485.99 48.1874 484.905 50.0961C483.819 52.0048 482.256 53.5984 480.369 54.7205C480.195 54.4242 480.041 54.1162 479.91 53.7985C479.455 52.7275 479.176 51.6085 478.721 50.5485C478.207 49.3905 477.48 48.339 476.579 47.4485C476.435 47.2758 476.251 47.1414 476.043 47.0575C475.837 47.03 475.629 47.0442 475.429 47.0994C475.229 47.1545 475.043 47.2495 474.881 47.3785C474.345 47.744 473.746 48.0071 473.114 48.1545C472.797 48.2259 472.468 48.2141 472.157 48.1204C471.847 48.0266 471.566 47.8541 471.342 47.6195C471.138 47.2932 471.007 46.9265 470.959 46.5447C470.911 46.163 470.946 45.7753 471.063 45.4085C471.488 43.7898 471.764 42.1356 471.888 40.4665C471.941 39.6282 471.777 38.7903 471.411 38.0341C471.045 37.2779 470.49 36.6291 469.8 36.1505C468.515 35.4225 466.919 35.6155 465.49 35.2135C465.269 35.1546 465.052 35.0794 464.842 34.9885C466.601 33.1867 468.857 31.95 471.323 31.4363C473.788 30.9226 476.35 31.1553 478.683 32.1046C481.015 33.054 483.012 34.6769 484.418 36.7662C485.824 38.8554 486.575 41.3163 486.576 43.8345L486.561 43.8335Z" fill="black"/>
<path d="M463.969 32.9761C463.739 33.0991 463.487 33.3191 463.557 33.5761C463.6 33.6965 463.68 33.7997 463.787 33.8701C464.375 34.3473 465.056 34.6973 465.787 34.8981C467.217 35.2841 468.818 35.0981 470.103 35.8351C470.793 36.3125 471.348 36.9603 471.714 37.7155C472.08 38.4707 472.244 39.3077 472.191 40.1451C472.058 41.8134 471.78 43.467 471.361 45.0871C471.246 45.4553 471.211 45.844 471.26 46.2267C471.31 46.6093 471.441 46.9769 471.645 47.3041C471.87 47.5378 472.151 47.7097 472.461 47.8034C472.771 47.8971 473.1 47.9094 473.417 47.8391C474.047 47.6935 474.644 47.432 475.179 47.0681C475.341 46.9385 475.527 46.8432 475.727 46.788C475.927 46.7328 476.135 46.7189 476.341 46.7471C476.559 46.8272 476.754 46.9598 476.909 47.1331C477.812 48.0241 478.539 49.078 479.051 50.2391C479.511 51.3101 479.79 52.4241 480.24 53.4891C480.64 54.5845 481.394 55.5153 482.382 56.1341C482.881 56.4356 483.465 56.5658 484.045 56.5049C484.625 56.4441 485.169 56.1956 485.595 55.7971C486.334 54.9831 486.313 53.7521 486.666 52.7071C487.298 50.9071 489.066 49.7671 490.166 48.2071C491.272 46.3571 491.93 44.2739 492.088 42.1241C492.235 41.4548 492.246 40.7627 492.12 40.0891C491.974 39.6439 491.786 39.2137 491.558 38.8041C490.326 36.2551 490.358 33.0481 488.388 31.0041C486.91 29.4781 484.672 29.0121 482.562 28.7551C480.452 28.4981 478.241 28.3371 476.431 27.2291C475.924 26.8454 475.365 26.5354 474.771 26.3081C474.47 26.2036 474.143 26.2074 473.844 26.3188C473.546 26.4302 473.296 26.6421 473.138 26.9181C473.1 27.0812 473.025 27.2333 472.919 27.3621C472.825 27.4159 472.721 27.4473 472.613 27.4539C472.505 27.4605 472.397 27.4421 472.298 27.4001L469.492 26.6451L469.813 28.0591C468.793 28.0999 467.777 27.9173 466.836 27.5241C466.782 28.3241 467.682 28.8411 467.96 29.5851C468.061 29.9269 468.065 30.2902 467.97 30.6338C467.875 30.9775 467.686 31.2876 467.424 31.5291C466.389 32.5511 465.115 32.3511 463.969 32.9761Z" fill="#585268"/>
<path opacity="0.1" d="M452.602 223.291L452.49 224.565L452.442 224.592C447.875 227.141 438.424 220.03 438.424 220.03L439.409 219.045C439.569 219.224 439.69 219.435 439.764 219.663C439.838 219.892 439.863 220.134 439.837 220.373L441.77 220.48L444.078 222.98C444.078 222.98 450.327 223.703 452.019 223.296L452.602 223.291Z" fill="black"/>
<path d="M451.803 230.225C448.831 230.884 438.417 230.835 438.417 230.835L432.602 231.761C432.602 231.761 422.594 232.72 421.481 229.619C420.368 226.518 422.354 226.701 422.354 226.701H422.429L426.595 226.364C426.595 226.364 431.88 224.319 433.818 222.91C435.349 221.72 436.795 220.424 438.145 219.033C438.145 219.033 439.885 218.696 439.853 220.709L441.786 220.816L444.094 223.306C444.094 223.306 450.343 224.034 452.035 223.627H452.619L452.345 226.703L452.42 226.803C452.794 227.28 454.459 229.631 451.803 230.225Z" fill="#FF748F"/>
<path d="M441.019 222.781C441.181 222.781 441.313 222.65 441.313 222.487C441.313 222.325 441.181 222.193 441.019 222.193C440.856 222.193 440.725 222.325 440.725 222.487C440.725 222.65 440.856 222.781 441.019 222.781Z" fill="#575988"/>
<path d="M433.534 226.031C433.697 226.031 433.828 225.9 433.828 225.737C433.828 225.575 433.697 225.443 433.534 225.443C433.372 225.443 433.24 225.575 433.24 225.737C433.24 225.9 433.372 226.031 433.534 226.031Z" fill="#575988"/>
<path d="M429.679 227.203C429.841 227.203 429.973 227.072 429.973 226.909C429.973 226.747 429.841 226.615 429.679 226.615C429.516 226.615 429.385 226.747 429.385 226.909C429.385 227.072 429.516 227.203 429.679 227.203Z" fill="#575988"/>
<path d="M435.499 225.41C435.661 225.41 435.793 225.279 435.793 225.116C435.793 224.954 435.661 224.822 435.499 224.822C435.337 224.822 435.205 224.954 435.205 225.116C435.205 225.279 435.337 225.41 435.499 225.41Z" fill="#575988"/>
<path d="M431.601 226.621C431.763 226.621 431.895 226.49 431.895 226.327C431.895 226.165 431.763 226.033 431.601 226.033C431.438 226.033 431.307 226.165 431.307 226.327C431.307 226.49 431.438 226.621 431.601 226.621Z" fill="#575988"/>
<path d="M437.485 224.488C437.648 224.488 437.779 224.357 437.779 224.194C437.779 224.032 437.648 223.9 437.485 223.9C437.323 223.9 437.191 224.032 437.191 224.194C437.191 224.357 437.323 224.488 437.485 224.488Z" fill="#575988"/>
<path d="M439.45 223.637C439.613 223.637 439.744 223.505 439.744 223.343C439.744 223.18 439.613 223.049 439.45 223.049C439.288 223.049 439.156 223.18 439.156 223.343C439.156 223.505 439.288 223.637 439.45 223.637Z" fill="#575988"/>
<path d="M451.803 230.225C448.831 230.884 438.417 230.835 438.417 230.835L432.602 231.761C432.602 231.761 422.594 232.719 421.481 229.619C420.368 226.519 422.354 226.701 422.354 226.701H422.429C423.066 227.526 424.346 228.468 426.863 228.511L434.063 228.805L441.522 228.27C441.522 228.27 448.483 228.056 449.645 227.82C450.602 227.562 451.534 227.219 452.43 226.797C452.794 227.28 454.459 229.634 451.803 230.225Z" fill="#DCE6F2"/>
<path opacity="0.5" d="M433.139 231.06C432.742 231.062 432.346 231.013 431.961 230.915L432.068 230.626C433.051 230.841 434.074 230.795 435.034 230.492C435.387 230.401 435.734 230.299 436.105 230.192C437.765 229.627 439.528 229.428 441.272 229.608H441.502C444.694 229.778 447.896 229.635 451.06 229.18C451.811 229.131 452.527 228.844 453.105 228.361L453.335 228.586C452.709 229.117 451.931 229.436 451.113 229.496C447.922 229.952 444.694 230.095 441.475 229.924H441.25C440.195 229.848 439.135 229.878 438.086 230.015C437.444 230.136 436.809 230.296 436.186 230.492C435.833 230.599 435.479 230.706 435.115 230.797C434.47 230.967 433.806 231.056 433.139 231.06Z" fill="#575988"/>
<path opacity="0.1" d="M477.007 128.27L475.133 130.032L470.475 124.072C470.967 123.797 471.444 123.497 471.905 123.172L477.007 128.27Z" fill="black"/>
<path d="M498.11 79.3613L501.772 84.4613V89.8153C502.745 93.5239 502.745 97.4207 501.772 101.129L501.96 106.066C501.96 106.066 500.182 110.607 500.819 111.72C500.819 111.72 500.498 115.067 496.198 117.38C491.898 119.693 487.037 125.144 487.037 125.144C487.037 125.144 485.206 128.651 480.269 127.853L475.569 129.845L470.156 122.916L477.481 118.932C477.481 118.932 480.03 115.505 481.545 115.666L487.756 108.432C487.756 108.432 487.917 106.124 489.507 106.124C489.507 106.124 486.562 103.736 487.595 102.301C488.628 100.866 487.756 94.4943 487.756 94.4943L498.11 79.3613Z" fill="#67647E"/>
<path opacity="0.1" d="M491.262 102.616C491.262 102.616 499.626 102.461 500.662 104.608C501.698 106.755 493.812 101.422 491.262 102.616Z" fill="black"/>
<path opacity="0.1" d="M474.904 129.859C474.906 129.999 474.896 130.139 474.872 130.277C474.775 130.918 474.46 131.506 473.981 131.942C473.501 132.378 472.885 132.635 472.238 132.67H472.088C471.342 132.67 470.627 132.374 470.1 131.847C469.573 131.319 469.277 130.604 469.277 129.859C469.278 129.547 469.331 129.238 469.432 128.943C468.104 127.872 468.032 125.955 468.067 124.997C468.763 124.881 469.433 124.644 470.048 124.297C470.395 125.293 470.861 126.245 471.435 127.13C471.648 127.076 471.868 127.05 472.088 127.05C472.457 127.049 472.823 127.121 473.165 127.262C473.507 127.403 473.817 127.61 474.079 127.871C474.34 128.133 474.548 128.443 474.689 128.784C474.831 129.125 474.904 129.491 474.904 129.861V129.859Z" fill="black"/>
<path d="M470.298 123.676C470.298 123.676 468.413 124.099 468.413 124.442C468.413 124.785 467.99 127.896 470.057 129.17C472.124 130.444 471.92 127.392 471.92 127.392C471.92 127.392 470.137 124.656 470.298 123.676Z" fill="#575988"/>
<path d="M472.408 132.675C473.963 132.675 475.224 131.414 475.224 129.859C475.224 128.304 473.963 127.043 472.408 127.043C470.853 127.043 469.592 128.304 469.592 129.859C469.592 131.414 470.853 132.675 472.408 132.675Z" fill="#E4AAB4"/>
<path d="M472.409 132.275C473.743 132.275 474.824 131.194 474.824 129.86C474.824 128.527 473.743 127.445 472.409 127.445C471.075 127.445 469.994 128.527 469.994 129.86C469.994 131.194 471.075 132.275 472.409 132.275Z" fill="#DCE6F2"/>
<path opacity="0.1" d="M461.441 130.947C463.36 132.395 465.621 133.323 468.004 133.64C470.386 133.957 472.811 133.653 475.041 132.757V135.145C475.041 135.145 469.941 138.645 465.323 136.526C460.705 134.407 461.441 130.947 461.441 130.947Z" fill="black"/>
<path opacity="0.1" d="M461.441 130.309C463.361 131.755 465.622 132.681 468.005 132.995C470.388 133.309 472.812 133.002 475.041 132.103V134.491C475.041 134.491 469.941 137.991 465.323 135.872C460.705 133.753 461.441 130.309 461.441 130.309Z" fill="black"/>
<path d="M461.441 130.309C463.361 131.755 465.622 132.681 468.005 132.995C470.388 133.309 472.812 133.002 475.041 132.103V134.491C475.041 134.491 469.941 137.991 465.323 135.872C460.705 133.753 461.441 130.309 461.441 130.309Z" fill="#444053"/>
<path opacity="0.05" d="M461.603 130.309C463.521 131.756 465.781 132.683 468.162 133C470.544 133.317 472.968 133.013 475.198 132.119V134.507C475.198 134.507 470.085 137.993 465.479 135.888C460.873 133.783 461.603 130.309 461.603 130.309Z" fill="black"/>
<path opacity="0.1" d="M442.777 219.018C442.777 219.018 450.744 220.48 451.912 220.796C453.08 221.112 451.591 221.674 451.591 221.674C451.591 221.674 444.292 220.373 442.777 219.018Z" fill="black"/>
<path opacity="0.1" d="M442.566 214.799C442.694 214.799 447.979 213.31 449.12 210.762L442.566 214.799Z" fill="black"/>
<path opacity="0.1" d="M450.271 184.316C450.271 184.316 452.413 187.132 453.794 187.052C455.175 186.972 451.529 184.209 450.271 184.316Z" fill="black"/>
<path opacity="0.1" d="M451.461 188.99C451.461 188.99 452.361 190.982 453.688 190.345L451.461 188.99Z" fill="black"/>
<path opacity="0.05" d="M456.479 145.26L462.128 160.16C462.128 160.16 462.927 150.575 461.238 147.705C460.761 146.886 460.059 146.221 459.215 145.788C458.372 145.355 457.422 145.172 456.479 145.26Z" fill="black"/>
<g opacity="0.1">
<path opacity="0.1" d="M470.384 27.2245L470.336 27.0105L469.426 26.7695L469.526 27.2135C469.811 27.236 470.098 27.2397 470.384 27.2245Z" fill="black"/>
<path opacity="0.1" d="M467.889 30.8049L467.989 30.7189C468.251 30.4782 468.439 30.169 468.534 29.8264C468.628 29.4839 468.625 29.1216 468.524 28.7809C468.414 28.517 468.262 28.2728 468.074 28.0579C467.625 27.9726 467.186 27.8433 466.762 27.6719C466.708 28.4719 467.608 28.9839 467.886 29.7329C468.011 30.0787 468.013 30.4567 467.892 30.8039L467.889 30.8049Z" fill="black"/>
<path opacity="0.1" d="M482.935 55.2929C481.948 54.6728 481.194 53.7425 480.793 52.6479C480.338 51.5769 480.065 50.4479 479.604 49.3979C479.093 48.238 478.366 47.186 477.462 46.2979C477.311 46.1217 477.118 45.9871 476.9 45.9069C476.695 45.8784 476.485 45.8922 476.286 45.9474C476.086 46.0026 475.899 46.0981 475.738 46.2279C475.201 46.5915 474.602 46.8544 473.971 47.0039C473.654 47.0722 473.326 47.0589 473.016 46.9653C472.706 46.8717 472.425 46.7009 472.199 46.4689C471.995 46.1425 471.865 45.7758 471.817 45.394C471.769 45.0122 471.804 44.6246 471.921 44.2579C472.347 42.6373 472.625 40.9811 472.751 39.3099C472.807 38.4751 472.643 37.6401 472.276 36.8884C471.908 36.1366 471.35 35.4945 470.657 35.0259C469.372 34.2919 467.776 34.4909 466.373 34.0889C465.642 33.8893 464.961 33.5391 464.373 33.0609L464.261 32.9609C464.142 33.0097 464.026 33.0651 463.913 33.1269C463.683 33.2499 463.436 33.4699 463.501 33.7209C463.547 33.8427 463.629 33.9474 463.737 34.0209C464.326 34.4956 465.007 34.8438 465.737 35.0439C467.167 35.4349 468.762 35.2529 470.047 35.9859C470.735 36.4591 471.29 37.1021 471.657 37.8527C472.024 38.6033 472.19 39.436 472.141 40.2699C472.008 41.9383 471.731 43.5918 471.311 45.2119C471.195 45.5787 471.16 45.9662 471.208 46.3479C471.256 46.7295 471.386 47.0963 471.589 47.4229C471.813 47.657 472.094 47.8292 472.405 47.9229C472.715 48.0166 473.044 48.0287 473.361 47.9579C473.992 47.81 474.59 47.5487 475.128 47.1869C475.29 47.0573 475.476 46.9616 475.676 46.9054C475.875 46.8492 476.084 46.8338 476.29 46.8599C476.497 46.9457 476.681 47.0798 476.826 47.2509C477.728 48.141 478.454 49.1925 478.968 50.3509C479.428 51.4219 479.702 52.5409 480.157 53.6009C480.551 54.7077 481.306 55.6503 482.299 56.2779C482.8 56.5739 483.382 56.701 483.961 56.6403C484.54 56.5796 485.083 56.3344 485.512 55.9409C485.719 55.7061 485.88 55.4348 485.988 55.1409C485.552 55.468 485.029 55.6572 484.485 55.6843C483.941 55.7114 483.401 55.5751 482.935 55.2929Z" fill="black"/>
<path opacity="0.1" d="M487.508 51.2528C488.308 50.2458 489.35 49.3898 490.1 48.3288C490.248 48.1184 490.386 47.9004 490.512 47.6758C489.548 48.8988 488.225 49.8898 487.508 51.2528Z" fill="black"/>
</g>
<g opacity="0.1">
<path opacity="0.1" d="M440.253 36.2051H313.565C311.811 36.2093 310.13 36.9077 308.888 38.1477C307.647 39.3878 306.947 41.0686 306.941 42.8231V122.867C306.947 124.622 307.647 126.302 308.888 127.542C310.13 128.782 311.811 129.481 313.565 129.485H412.945C412.945 129.485 415.52 143.155 407.055 144.622C407.055 144.622 425.999 145.982 422.69 129.485H440.247C442.001 129.481 443.682 128.782 444.922 127.542C446.163 126.302 446.861 124.621 446.865 122.867V42.8231C446.861 41.07 446.163 39.3899 444.924 38.1499C443.685 36.9098 442.005 36.2106 440.252 36.2051H440.253Z" fill="black"/>
<g opacity="0.2">
<path opacity="0.2" d="M425.089 57.4512H328.719C326.992 57.4512 325.592 58.8512 325.592 60.5782C325.592 62.3052 326.992 63.7052 328.719 63.7052H425.089C426.816 63.7052 428.216 62.3052 428.216 60.5782C428.216 58.8512 426.816 57.4512 425.089 57.4512Z" fill="black"/>
<path opacity="0.2" d="M407.146 85.4004H328.719C326.992 85.4004 325.592 86.8004 325.592 88.5274C325.592 90.2544 326.992 91.6544 328.719 91.6544H407.146C408.873 91.6544 410.273 90.2544 410.273 88.5274C410.273 86.8004 408.873 85.4004 407.146 85.4004Z" fill="black"/>
<path opacity="0.2" d="M383.426 71.4258H328.719C326.992 71.4258 325.592 72.8258 325.592 74.5528C325.592 76.2798 326.992 77.6798 328.719 77.6798H383.426C385.153 77.6798 386.553 76.2798 386.553 74.5528C386.553 72.8258 385.153 71.4258 383.426 71.4258Z" fill="black"/>
</g>
</g>
<path d="M441.909 35.0957H315.222C313.467 35.1012 311.785 35.8008 310.544 37.0416C309.303 38.2824 308.603 39.9638 308.598 41.7187V121.766C308.603 123.52 309.303 125.201 310.545 126.441C311.786 127.681 313.467 128.379 315.222 128.384H414.601C414.601 128.384 417.177 142.054 408.711 143.521C408.711 143.521 427.655 144.881 424.346 128.384H441.903C443.657 128.379 445.337 127.681 446.578 126.441C447.818 125.2 448.516 123.52 448.521 121.766V41.7187C448.516 39.9655 447.818 38.2851 446.58 37.0444C445.341 35.8036 443.662 35.1031 441.909 35.0957Z" fill="white"/>
<g opacity="0.2">
<path opacity="0.2" d="M426.745 56.3418H330.375C328.648 56.3418 327.248 57.7418 327.248 59.4688C327.248 61.1958 328.648 62.5958 330.375 62.5958H426.745C428.472 62.5958 429.872 61.1958 429.872 59.4688C429.872 57.7418 428.472 56.3418 426.745 56.3418Z" fill="#6C63FF"/>
<path opacity="0.2" d="M408.802 84.2969H330.375C328.648 84.2969 327.248 85.6969 327.248 87.4239C327.248 89.1509 328.648 90.5509 330.375 90.5509H408.802C410.529 90.5509 411.929 89.1509 411.929 87.4239C411.929 85.6969 410.529 84.2969 408.802 84.2969Z" fill="#6C63FF"/>
<path opacity="0.2" d="M385.082 70.3223H330.375C328.648 70.3223 327.248 71.7223 327.248 73.4493C327.248 75.1763 328.648 76.5763 330.375 76.5763H385.082C386.809 76.5763 388.209 75.1763 388.209 73.4493C388.209 71.7223 386.809 70.3223 385.082 70.3223Z" fill="#6C63FF"/>
</g>
<path opacity="0.1" d="M38.3878 331.409C49.4125 331.409 58.3498 330.038 58.3498 328.346C58.3498 326.655 49.4125 325.283 38.3878 325.283C27.3631 325.283 18.4258 326.655 18.4258 328.346C18.4258 330.038 27.3631 331.409 38.3878 331.409Z" fill="#6C63FF"/>
<path opacity="0.1" d="M345.78 430.686C370.633 430.686 390.779 427.38 390.779 423.302C390.779 419.224 370.633 415.918 345.78 415.918C320.928 415.918 300.781 419.224 300.781 423.302C300.781 427.38 320.928 430.686 345.78 430.686Z" fill="#6C63FF"/>
<g opacity="0.1">
<path opacity="0.1" d="M397.9 196.551H260.616C258.715 196.557 256.894 197.315 255.55 198.66C254.206 200.004 253.448 201.825 253.441 203.726V290.469C253.448 292.37 254.206 294.191 255.55 295.535C256.894 296.879 258.715 297.637 260.616 297.644H368.316C368.316 297.644 371.106 312.454 361.939 314.044C361.939 314.044 382.463 315.517 378.875 297.644H397.905C399.806 297.637 401.627 296.879 402.972 295.535C404.316 294.191 405.074 292.37 405.08 290.469V203.726C405.074 201.825 404.316 200.004 402.972 198.66C401.627 197.315 399.806 196.557 397.905 196.551H397.9Z" fill="black"/>
<g opacity="0.2">
<path opacity="0.2" d="M381.472 249.871H277.037C275.166 249.871 273.648 251.388 273.648 253.26V253.261C273.648 255.133 275.166 256.65 277.037 256.65H381.472C383.344 256.65 384.861 255.133 384.861 253.261V253.26C384.861 251.388 383.344 249.871 381.472 249.871Z" fill="black"/>
<path opacity="0.2" d="M318.482 234.723H277.037C275.166 234.723 273.648 236.24 273.648 238.112V238.113C273.648 239.984 275.166 241.502 277.037 241.502H318.482C320.354 241.502 321.871 239.984 321.871 238.113V238.112C321.871 236.24 320.354 234.723 318.482 234.723Z" fill="black"/>
</g>
</g>
<path d="M396.728 195.355H259.417C257.516 195.362 255.695 196.12 254.351 197.464C253.007 198.808 252.249 200.63 252.242 202.53V289.273C252.249 291.174 253.007 292.996 254.351 294.34C255.695 295.684 257.516 296.442 259.417 296.448H367.117C367.117 296.448 369.907 311.259 360.74 312.854C360.74 312.854 381.269 314.326 377.682 296.448H396.733C398.634 296.442 400.455 295.684 401.799 294.34C403.144 292.996 403.902 291.174 403.908 289.273V202.525C403.9 200.625 403.141 198.804 401.796 197.461C400.451 196.118 398.629 195.361 396.728 195.355Z" fill="white"/>
<g opacity="0.2">
<path opacity="0.2" d="M380.279 248.676H275.844C273.972 248.676 272.455 250.193 272.455 252.065V252.066C272.455 253.937 273.972 255.455 275.844 255.455H380.279C382.151 255.455 383.668 253.937 383.668 252.066V252.065C383.668 250.193 382.151 248.676 380.279 248.676Z" fill="#6C63FF"/>
<path opacity="0.2" d="M317.289 233.527H275.844C273.972 233.527 272.455 235.045 272.455 236.916V236.917C272.455 238.789 273.972 240.306 275.844 240.306H317.289C319.161 240.306 320.678 238.789 320.678 236.917V236.916C320.678 235.045 319.161 233.527 317.289 233.527Z" fill="#6C63FF"/>
</g>
<path d="M371.674 418.279C371.026 415.532 370.603 413.117 370.603 413.117C370.66 411.297 370.249 409.492 369.409 407.875V407.125V401.594C369.79 400.589 370.259 399.619 370.808 398.694C371.808 396.954 370.808 390.582 370.808 390.582C370.808 390.582 367.114 381.597 368.009 375.9C368.904 370.203 360.422 350.589 360.422 350.589C360.475 348.698 360.743 346.82 361.222 344.989C361.31 344.605 361.346 344.211 361.329 343.816C361.331 343.768 361.331 343.72 361.329 343.671V343.719C361.2 339.971 358.229 332.914 358.229 332.914L358.629 319.49C358.629 319.49 360.529 311.571 357.429 300.942C356.358 297.237 355.656 294.265 355.217 291.979C355.169 291.717 355.118 291.444 355.079 291.229C361.451 290.26 366.323 289.451 366.323 289.451C366.323 289.451 362.639 273.993 360.144 271.315C357.649 268.637 355.657 260.071 355.657 260.071C355.657 260.071 354.357 249.153 356.457 245.971C358.557 242.789 358.85 237.281 358.85 237.281C358.85 237.281 363.669 233.801 364.242 232.258C365.079 230.054 365.619 227.747 365.847 225.399C365.847 223.562 365.248 221.919 365.448 220.955C365.648 219.991 364.047 216.318 364.847 214.578C365.056 214.044 365.165 213.476 365.169 212.902V212.851C365.173 211.331 365.032 209.814 364.746 208.321C363.362 207.153 361.747 206.289 360.006 205.788L359.899 205.37L359.631 204.299C359.47 204.192 359.316 204.099 359.161 204.015V203.615L359.113 202.046L359.868 198.523C361.341 192.387 353.154 191.471 353.154 191.471C352.659 190.531 351.832 189.808 350.834 189.442C349.185 188.864 350.561 198.668 351.334 199.294C352.546 200.886 353.621 202.577 354.548 204.349L354.687 204.601C354.55 204.72 354.424 204.851 354.312 204.992L354.623 207.134L354.67 207.461C354.129 208.137 353.689 208.887 353.365 209.689C353.786 210.161 354.109 210.711 354.315 211.309C354.521 211.906 354.606 212.539 354.565 213.169C354.438 214.604 354.606 216.048 355.058 217.415C354.972 217.315 353.918 216.173 352.868 216.451C351.818 216.729 348.873 217.613 348.873 217.613C348.873 217.613 346.673 217.998 346.881 218.48C347.089 218.962 345.381 221.088 345.381 221.088L339.492 215.498C339.438 215.332 339.374 215.166 339.321 214.989C339.069 214.191 338.89 213.372 338.785 212.542C339.426 212.387 340.056 212.187 340.67 211.942C341.28 211.727 341.831 211.369 342.276 210.898C342.771 210.129 343.094 209.261 343.224 208.355C343.834 206.677 344.566 205.045 345.414 203.472C346.63 200.722 347.038 197.682 346.592 194.707C346.499 193.793 346.191 192.914 345.692 192.142C344.728 190.814 342.983 190.279 341.708 189.218C340.433 188.157 339.619 186.541 338.142 185.754C336.729 185.143 335.156 185.008 333.66 185.368C330.709 185.856 327.875 186.887 325.302 188.409C324.507 189.036 323.517 189.362 322.506 189.33C321.682 189.084 320.966 188.562 320.48 187.851C320.478 187.837 320.479 187.822 320.484 187.808C320.489 187.795 320.496 187.782 320.506 187.771L320.443 187.696C319.838 189.074 319.54 190.567 319.57 192.071C319.565 192.307 319.574 192.543 319.597 192.778V193.228C319.598 193.335 319.584 193.442 319.554 193.544C319.433 193.846 319.251 194.119 319.018 194.344C318.836 194.546 318.675 194.765 318.536 194.997C318.557 194.916 318.584 194.835 318.616 194.756C318.239 195.307 318.028 195.953 318.006 196.619C317.972 197.103 318.129 197.58 318.445 197.947C318.74 198.237 319.063 198.496 319.409 198.723C318.998 200.986 319.291 203.321 320.248 205.412C321.206 207.503 322.781 209.25 324.763 210.417C324.833 210.583 324.902 210.754 324.963 210.926C325.817 212.955 326.184 215.156 326.034 217.351C326.025 217.511 325.999 217.668 325.959 217.822C325.927 217.977 325.814 217.983 325.75 218.068C325.75 218.068 316.01 218.168 313.713 216.087C311.416 214.006 307.925 221.158 307.925 221.158C307.925 221.158 304.434 221.833 303.738 221.158C303.042 220.483 298.946 221.058 298.946 221.058C297.278 219.579 295.113 218.787 292.885 218.841C291.521 217.805 290.018 216.969 288.419 216.357L288.312 216.32C287.608 216.065 286.856 215.97 286.112 216.042C286.112 216.042 281.32 212.08 279.922 209.959C278.524 207.838 271.89 199.951 271.842 199.914V199.534L271.767 198.383C271.57 198.417 271.372 198.435 271.173 198.437C271.135 198.325 271.093 198.191 271.039 198.037C270.654 196.918 270.182 195.831 269.625 194.787C269.625 194.787 269.625 193.341 270.048 192.977C270.471 192.613 269.871 187.301 269.871 187.301C269.871 187.301 265.554 177.208 261.688 184.742C261.688 184.742 254.38 189.62 260.516 195.296C260.516 195.296 262.963 196.479 263.306 197.438C263.536 198.048 264.377 199.751 264.912 200.881L265.164 201.39L265.094 201.449L265.185 202.397L265.222 202.761C264.066 203.42 263.284 204.067 263.471 204.561C263.811 205.398 264.046 206.274 264.17 207.169C264.17 207.169 272.62 217.769 273.717 222.322C273.717 222.322 296.469 235.842 303.955 236.806L302.655 243.569C302.461 245.396 302.361 247.232 302.355 249.069C302.455 250.52 301.455 257.101 301.455 257.101C301.455 257.101 300.155 266.739 299.062 268.11C297.969 269.481 298.188 275.248 298.188 275.248C297.924 278.022 297.422 280.768 296.688 283.456C296.062 286.15 295.96 288.939 296.389 291.67C296.389 291.67 292.598 300.36 301.679 294.47C301.679 294.47 306.139 294.192 311.279 294.015V294.55C311.279 295.209 311.279 295.926 311.247 296.692C311.177 301.672 311.147 308.531 311.375 313.725C311.775 322.897 314.588 341.06 314.588 341.06V350.16C314.409 351.018 314.321 351.892 314.326 352.768C314.264 355.985 315.116 359.152 316.784 361.903L317.484 367.986C317.484 367.986 319.122 371.996 319.154 374.411C319.146 374.608 319.122 374.803 319.084 374.995C319.022 375.302 318.995 375.615 319.004 375.927C318.913 378.69 320.578 385.297 320.578 385.297C320.578 385.297 320.678 391.963 321.649 392.349C322.5 392.681 320.508 396.193 319.914 397.2C319.92 397.134 319.907 397.067 319.877 397.007L319.754 397.207C319.548 397.744 319.442 398.314 319.444 398.888C319.387 399.344 319.462 399.806 319.658 400.221C319.854 400.637 320.164 400.988 320.552 401.233C322.452 402.389 323.465 403.375 321.852 403.744C321.26 403.837 320.674 403.961 320.096 404.114L320.01 403.889C319.784 403.981 319.597 404.146 319.478 404.359C319.36 404.571 319.317 404.817 319.357 405.056C319.368 405.847 319.572 406.623 319.951 407.316C320.661 409.051 321.559 410.703 322.628 412.242L323.399 412.156C323.282 412.447 323.133 412.724 322.955 412.981C322.664 413.401 322.276 413.744 321.825 413.981C321.408 414.233 320.943 414.392 320.459 414.447C319.918 414.466 319.387 414.598 318.9 414.835C318.413 415.072 317.981 415.409 317.633 415.823C316.633 417.114 316.026 418.865 317.98 420.407L325.118 422.87C325.118 422.87 337.39 424.476 336.743 421.708C336.096 418.94 335.673 416.541 335.673 416.541C335.722 414.858 335.379 413.187 334.673 411.658C334.543 411.41 334.398 411.17 334.239 410.94L334.673 410.892C334.673 410.892 335.573 404.804 336.767 403.647C337.045 403.379 337.11 403.176 337.04 403.015C337.163 402.683 336.853 402.48 336.451 402.378L336.365 402.619C335.972 402.534 335.572 402.489 335.17 402.485C335.17 402.485 334.771 399.299 336.071 398.142C336.175 398.01 336.252 397.858 336.295 397.695C336.338 397.532 336.348 397.361 336.323 397.194C336.331 396.757 336.286 396.321 336.188 395.894L336.141 395.969C335.401 393.393 334.442 390.883 333.276 388.469C333.276 388.469 333.176 385.569 333.976 384.41C334.776 383.251 333.876 368.668 333.876 368.668C333.876 368.668 334.176 361.616 333.276 358.334C332.376 355.052 334.376 351.186 334.376 351.186V350.972L334.403 350.924C334.403 350.924 334.355 350.49 334.285 349.816V349.88C334.085 348.017 333.701 344.633 333.423 343.069C333.023 340.847 333.523 330.218 333.523 330.218L335.323 325.677L338.536 333.505L341.931 343.935C342.896 345.23 343.491 346.763 343.649 348.369C343.658 348.478 343.658 348.588 343.649 348.696C343.624 348.929 343.612 349.163 343.613 349.396C343.553 350.712 343.914 352.012 344.646 353.107C344.646 353.107 345.546 358.033 346.946 359.291C347.842 360.304 348.339 361.607 348.346 362.959C348.346 362.959 350.038 370.107 350.846 371.365C351.515 372.436 351.552 375.333 351.545 376.222V376.484C351.545 376.484 351.782 379.038 351.771 381.184V381.95C351.768 381.931 351.768 381.911 351.771 381.891C351.766 382.477 351.696 383.061 351.562 383.631C351.561 383.667 351.55 383.702 351.53 383.731L351.562 383.367C351.202 384.825 351.022 386.321 351.027 387.822C350.979 390.392 351.37 393.434 352.927 395.217C355.604 398.312 357.318 397.926 357.318 397.926C357.318 397.926 356.018 401.787 354.418 402.558C354.358 402.589 354.303 402.627 354.252 402.67C354.242 402.595 354.228 402.519 354.209 402.445C354.035 402.64 353.904 402.868 353.824 403.116C353.743 403.364 353.716 403.626 353.743 403.885C353.811 405.949 354.499 407.944 355.719 409.609C356.094 409.982 356.558 410.253 357.068 410.396L356.816 410.551C356.642 410.648 356.463 410.736 356.281 410.813C356.022 410.927 355.747 410.998 355.467 411.022C354.925 411.038 354.392 411.169 353.905 411.406C353.418 411.644 352.986 411.982 352.64 412.398C351.64 413.683 351.034 415.434 352.988 416.976L360.126 419.439C360.126 419.439 372.324 421.036 371.674 418.279Z" fill="url(#paint1_linear)"/>
<path d="M324.79 422.851L317.883 420.388C315.977 418.846 316.583 417.095 317.546 415.805C317.878 415.394 318.293 415.058 318.765 414.821C319.237 414.583 319.754 414.45 320.282 414.429C320.752 414.373 321.204 414.214 321.605 413.963C322.037 413.72 322.404 413.378 322.676 412.963C323.185 412.163 323.458 411.235 323.463 410.286C323.463 410.286 331.05 408.064 333.101 410.286C333.471 410.688 333.781 411.141 334.022 411.63C334.705 413.166 335.034 414.834 334.986 416.513C334.986 416.513 335.377 418.928 335.998 421.68C336.619 424.432 324.79 422.851 324.79 422.851Z" fill="#2D293D"/>
<path d="M358.599 419.442L351.692 416.979C349.786 415.437 350.392 413.686 351.355 412.401C351.685 411.988 352.1 411.65 352.572 411.413C353.044 411.175 353.563 411.043 354.091 411.025C354.363 411 354.629 410.929 354.878 410.816C355.063 410.742 355.241 410.654 355.413 410.554C357.341 409.483 357.293 406.886 357.293 406.886C357.293 406.886 364.875 404.664 366.931 406.886C367.21 407.185 367.453 407.515 367.654 407.871C368.472 409.496 368.872 411.3 368.816 413.118C368.816 413.118 369.202 415.533 369.828 418.285C370.454 421.037 358.599 419.442 358.599 419.442Z" fill="#2D293D"/>
<path opacity="0.1" d="M333.144 410.291C333.514 410.693 333.824 411.145 334.065 411.635L322.697 412.952C323.206 412.151 323.479 411.224 323.484 410.275C323.484 410.275 331.071 408.068 333.144 410.291Z" fill="black"/>
<path opacity="0.1" d="M367.675 407.862V410.004C365.913 412.917 357.362 412.28 354.875 410.818C355.06 410.744 355.238 410.656 355.41 410.556C357.338 409.485 357.289 406.888 357.289 406.888C357.289 406.888 364.871 404.666 366.927 406.888C367.214 407.182 367.465 407.509 367.675 407.862Z" fill="black"/>
<path d="M369.03 398.698C368.5 399.627 368.047 400.596 367.675 401.598V409.228C365.747 412.441 355.702 411.37 354.348 409.614C352.994 407.858 351.548 403.338 353.095 402.567C354.642 401.796 355.895 397.93 355.895 397.93C355.895 397.93 354.251 398.316 351.643 395.23C349.035 392.144 349.807 385.281 350.294 383.638C350.781 381.995 350.294 376.49 350.294 376.49C350.294 376.49 350.394 372.629 349.614 371.371C348.834 370.113 347.199 362.971 347.199 362.971C347.196 361.626 346.718 360.326 345.85 359.298C344.501 358.04 343.628 353.119 343.628 353.119C342.832 351.89 342.486 350.424 342.648 348.969C342.942 346.554 341.01 343.947 341.01 343.947L337.728 333.516L334.633 325.693L332.909 330.228C332.909 330.228 332.422 340.851 332.809 343.079C333.196 345.307 333.773 351.191 333.773 351.191C333.773 351.191 331.84 355.057 332.702 358.339C333.564 361.621 333.28 368.673 333.28 368.673C333.28 368.673 334.147 383.259 333.38 384.415C332.613 385.571 332.705 388.474 332.705 388.474C332.705 388.474 336.662 396.974 335.382 398.112C334.102 399.25 334.509 402.46 334.509 402.46C334.509 402.46 337.186 402.46 336.056 403.617C334.926 404.774 334.08 410.878 334.08 410.878L322.402 412.227C321.343 410.691 320.464 409.039 319.784 407.301C318.237 403.724 320.073 404.088 321.631 403.73C323.189 403.372 322.199 402.375 320.367 401.219C318.535 400.063 319.591 397.471 319.591 397.471C319.591 397.471 322.391 392.738 321.428 392.347C320.465 391.956 320.357 385.3 320.357 385.3C320.357 385.3 318.424 377.375 318.906 375.255C319.388 373.135 317.359 368.01 317.359 368.01L316.684 361.922C314.612 358.474 313.852 354.395 314.542 350.431V341.045C314.542 341.045 311.861 322.877 311.453 313.701C311.207 307.811 311.276 299.806 311.353 294.801C311.401 291.995 311.453 290.137 311.453 290.137L353.191 285.777C353.254 287.863 353.507 289.938 353.946 291.977C354.369 294.269 355.017 297.235 356.088 300.946C359.081 311.569 357.244 319.489 357.244 319.489L356.861 332.913C356.861 332.913 360.534 341.892 359.761 344.987C359.299 346.82 359.04 348.698 358.99 350.587C358.99 350.587 367.199 370.195 366.331 375.892C365.463 381.589 369.008 390.574 369.008 390.574C369.008 390.574 369.993 396.958 369.03 398.698Z" fill="#575988"/>
<path opacity="0.05" d="M345.17 348.378L357.876 346.686C357.876 346.686 350.68 354.027 345.17 348.378Z" fill="black"/>
<path opacity="0.1" d="M356.034 334.273C356.034 334.273 356.468 338.765 353.715 340.457C353.721 340.457 358.646 339.681 356.034 334.273Z" fill="black"/>
<path opacity="0.1" d="M355.258 319.982C355.258 319.982 344.64 328.721 340.801 328.014C336.962 327.307 355.258 319.982 355.258 319.982Z" fill="black"/>
<path opacity="0.1" d="M329.426 352.484C329.426 352.484 321.362 354.315 321.126 357.555C320.89 360.795 329.426 352.484 329.426 352.484Z" fill="black"/>
<path opacity="0.05" d="M331.199 392.76C331.199 392.76 319.805 394.902 323.039 396.331C325.822 397.422 328.687 398.294 331.606 398.939C331.606 398.939 335.26 399.132 331.199 392.76Z" fill="black"/>
<g opacity="0.05">
<path opacity="0.05" d="M320.736 398.633C320.451 398.452 320.209 398.209 320.03 397.923C319.85 397.637 319.736 397.314 319.697 396.979L319.579 397.179C319.579 397.179 318.508 399.787 320.35 400.927C320.564 401.061 320.762 401.195 320.944 401.327C321.287 401.263 321.651 401.215 322.015 401.127C323.558 400.754 322.573 399.79 320.736 398.633Z" fill="black"/>
<path opacity="0.05" d="M335.418 397.861C335.734 397.572 335.723 396.828 335.53 395.875C335.064 396.732 334.84 397.7 334.882 398.675C335.002 398.369 335.184 398.092 335.418 397.861Z" fill="black"/>
<path opacity="0.05" d="M333.667 349.805C333.245 350.946 332.986 352.141 332.896 353.355C333.114 352.515 333.41 351.698 333.779 350.913C333.779 350.913 333.737 350.48 333.667 349.805Z" fill="black"/>
<path opacity="0.05" d="M359.781 344.735C359.86 344.384 359.896 344.024 359.888 343.664C359.743 344.382 359.642 345.051 359.572 345.64C359.615 345.333 359.685 345.03 359.781 344.735Z" fill="black"/>
<path opacity="0.05" d="M333.392 384.144C333.614 383.453 333.712 382.727 333.681 382.002C333.332 382.863 333.15 383.782 333.146 384.711C333.206 384.513 333.288 384.323 333.392 384.144Z" fill="black"/>
<path opacity="0.05" d="M335.782 402.354C335.182 404.293 334.738 406.277 334.454 408.287L322.776 409.642C321.718 408.105 320.84 406.452 320.158 404.716C320.024 404.4 319.917 404.122 319.831 403.865C319.131 404.186 318.857 404.936 319.772 407.035C320.454 408.77 321.331 410.422 322.385 411.961L334.079 410.606C334.079 410.606 334.946 404.523 336.103 403.361C336.665 402.793 336.298 402.504 335.782 402.354Z" fill="black"/>
<path opacity="0.05" d="M320.351 385.012C320.351 385.012 320.451 391.678 321.422 392.064C321.909 390.964 322.236 389.922 321.802 389.74C320.833 389.354 320.731 382.688 320.731 382.688C320.731 382.688 318.803 374.769 319.285 372.643C319.767 370.517 317.738 365.398 317.738 365.398L317.063 359.315C314.988 355.864 314.227 351.781 314.921 347.815V338.445C314.921 338.445 312.244 320.288 311.831 311.137C311.585 305.247 311.654 297.215 311.731 292.237C311.731 291.337 311.758 290.529 311.774 289.854L311.442 289.885C311.442 289.885 311.388 291.744 311.342 294.555C311.256 299.555 311.187 307.577 311.442 313.455C311.827 322.633 314.532 340.789 314.532 340.789V350.159C313.838 354.126 314.599 358.209 316.674 361.659L317.354 367.705C317.354 367.705 319.383 372.824 318.902 374.95C318.421 377.076 320.351 385.012 320.351 385.012Z" fill="black"/>
<path opacity="0.05" d="M354.737 407.034C353.788 405.661 353.157 404.093 352.89 402.445C351.696 403.516 353.067 407.698 354.352 409.352C355.701 411.087 365.746 412.152 367.679 408.967V407.125C365.065 409.716 356.032 408.678 354.737 407.034Z" fill="black"/>
<path opacity="0.05" d="M369.419 396.123C368.886 397.049 368.433 398.019 368.064 399.023V400.367C368.283 399.867 368.6 399.211 369.034 398.429C369.342 397.672 369.486 396.858 369.456 396.041C369.44 396.066 369.428 396.094 369.419 396.123Z" fill="black"/>
<path opacity="0.05" d="M355.332 397.642C355.701 396.898 356.019 396.13 356.285 395.342C356.285 395.342 354.641 395.728 352.034 392.665C350.134 390.416 350.026 386.17 350.299 383.396C349.812 385.034 349.041 391.896 351.648 394.983C353.356 396.979 354.639 397.513 355.332 397.642Z" fill="black"/>
<path opacity="0.05" d="M350.293 376.224C350.463 378.127 350.528 380.038 350.486 381.948C350.536 381.644 350.603 381.344 350.686 381.048C351.173 379.41 350.686 373.905 350.686 373.905C350.686 373.905 350.786 370.039 350.011 368.786C349.236 367.533 347.596 360.379 347.596 360.379C347.594 359.035 347.116 357.736 346.247 356.711C344.898 355.458 344.025 350.526 344.025 350.526C343.232 349.296 342.889 347.83 343.056 346.376C343.345 343.961 341.418 341.353 341.418 341.353L338.13 330.917L335.041 323.094L333.301 327.635C333.301 327.635 333.301 328.208 333.242 329.102L334.656 325.413L337.745 333.236L341.045 343.672C341.045 343.672 342.978 346.28 342.689 348.694C342.522 350.148 342.865 351.614 343.658 352.844C343.658 352.844 344.526 357.77 345.875 359.029C346.744 360.054 347.223 361.353 347.229 362.697C347.229 362.697 348.873 369.845 349.644 371.104C350.415 372.363 350.293 376.224 350.293 376.224Z" fill="black"/>
</g>
<path d="M358.41 198.495L357.682 202.018L357.725 203.587L357.757 204.749L353.725 205.161L353.275 204.326C352.37 202.56 351.325 200.869 350.148 199.271C349.404 198.645 348.076 188.84 349.671 189.419C350.645 189.797 351.444 190.522 351.914 191.454C351.914 191.454 359.831 192.39 358.41 198.495Z" fill="#FFCDD3"/>
<path opacity="0.1" d="M357.752 204.77L353.719 205.182L353.27 204.347C353.813 203.73 354.552 203.32 355.363 203.186C356.175 203.052 357.007 203.203 357.719 203.613L357.752 204.77Z" fill="black"/>
<path d="M358.77 206.681L353.453 207.913L353.346 207.121L353.041 204.979C353.332 204.594 353.696 204.269 354.112 204.025C354.529 203.781 354.99 203.622 355.468 203.557C355.947 203.492 356.433 203.522 356.9 203.646C357.367 203.77 357.804 203.985 358.187 204.279L358.449 205.35L358.77 206.681Z" fill="#DCE6F2"/>
<path d="M272.681 198.906L267.011 201.947L266.476 200.876C265.941 199.746 265.132 198.043 264.912 197.433C264.575 196.496 262.212 195.291 262.212 195.291C256.274 189.615 263.347 184.737 263.347 184.737C267.095 177.203 271.266 187.296 271.266 187.296C271.266 187.296 271.844 192.613 271.437 192.972C271.03 193.331 271.025 194.782 271.025 194.782C271.568 195.826 272.027 196.913 272.396 198.032C272.59 198.574 272.681 198.906 272.681 198.906Z" fill="#FFCDD3"/>
<path opacity="0.1" d="M272.68 198.906L267.01 201.947L266.475 200.876C267.275 200.212 270.116 197.91 271.048 198.011C271.493 198.066 271.943 198.078 272.392 198.048C272.589 198.574 272.68 198.906 272.68 198.906Z" fill="black"/>
<path d="M273.259 200.642L266.887 203.785L266.759 202.414L266.668 201.466C266.668 201.466 270.363 198.302 271.455 198.419C272.007 198.5 272.568 198.5 273.12 198.419L273.19 199.565L273.259 200.642Z" fill="#DCE6F2"/>
<path d="M342.953 221.942C342.953 221.942 315.153 225.08 320.353 223.393C323.967 222.215 325.402 219.918 325.707 217.364C325.853 215.172 325.498 212.974 324.668 210.939C324.012 209.185 323.18 207.502 322.184 205.916C322.184 205.916 343.436 194.227 339.184 204.845C338.53 206.452 338.125 208.149 337.984 209.878C337.85 211.594 338.031 213.32 338.519 214.97C339.322 217.661 340.857 220.074 342.953 221.942Z" fill="#FFCDD3"/>
<path opacity="0.1" d="M339.184 204.851C338.53 206.457 338.125 208.155 337.984 209.884C335.984 211.565 333.784 211.453 330.97 211.453C328.828 211.453 326.408 211.988 324.67 210.918C324.014 209.164 323.181 207.481 322.186 205.896C322.186 205.896 343.435 194.217 339.184 204.851Z" fill="black"/>
<path d="M330.584 212.191C336.933 212.191 342.08 207.044 342.08 200.695C342.08 194.346 336.933 189.199 330.584 189.199C324.235 189.199 319.088 194.346 319.088 200.695C319.088 207.044 324.235 212.191 330.584 212.191Z" fill="#FFCDD3"/>
<path opacity="0.1" d="M342.953 221.946C342.953 221.946 315.153 225.084 320.353 223.397C323.967 222.219 325.402 219.922 325.707 217.368C327.089 215.868 329.868 214.787 331.656 214.214C333.287 213.666 335.048 213.638 336.695 214.134C337.343 214.326 337.96 214.611 338.526 214.98C339.328 217.667 340.861 220.079 342.953 221.946Z" fill="black"/>
<path opacity="0.1" d="M358.766 206.682L353.449 207.914L353.342 207.122C353.91 206.343 354.704 205.757 355.617 205.445C356.529 205.132 357.515 205.108 358.442 205.376L358.766 206.682Z" fill="black"/>
<path opacity="0.1" d="M273.258 200.641L266.886 203.784L266.758 202.413C268.825 201.304 270.973 200.352 273.183 199.564L273.258 200.641Z" fill="black"/>
<path opacity="0.1" d="M353.946 291.983C343.183 293.683 327.859 295.897 325.428 295.158C323.415 294.542 316.973 294.623 311.367 294.799C311.415 291.993 311.467 290.135 311.467 290.135L353.187 285.777C353.251 287.865 353.506 289.942 353.946 291.983Z" fill="black"/>
<path d="M364.681 289.456C364.681 289.456 329.234 295.544 325.427 294.382C321.62 293.22 302.092 294.482 302.092 294.482C293.305 300.372 296.973 291.682 296.973 291.682C296.544 288.953 296.642 286.167 297.262 283.474C297.983 280.784 298.477 278.039 298.74 275.266C298.74 275.266 298.547 269.466 299.607 268.118C300.667 266.77 301.929 257.098 301.929 257.098C301.929 257.098 302.898 250.533 302.802 249.066C302.807 247.229 302.903 245.394 303.091 243.566L304.344 236.803C297.099 235.839 275.076 222.314 275.076 222.314C274.005 217.779 265.807 207.15 265.807 207.15C265.688 206.256 265.46 205.38 265.127 204.542C264.549 203 273.244 199.91 273.244 199.91C273.244 199.91 279.712 207.829 281.067 209.955C282.422 212.081 287.053 216.038 287.053 216.038C287.779 215.964 288.512 216.059 289.195 216.316L289.307 216.348C290.862 216.963 292.319 217.8 293.634 218.833C295.812 218.781 297.924 219.578 299.524 221.055C299.524 221.055 303.486 220.477 304.161 221.155C304.836 221.833 308.22 221.155 308.22 221.155C308.22 221.155 311.599 214.007 313.82 216.084C316.041 218.161 325.466 218.065 325.466 218.065C326.724 216.394 329.782 215.195 331.693 214.579C333.324 214.034 335.084 214.006 336.731 214.499C337.443 214.703 338.115 215.027 338.718 215.457L344.437 221.057C344.437 221.057 346.081 218.915 345.888 218.449C345.695 217.983 347.821 217.582 347.821 217.582C347.821 217.582 350.621 216.709 351.682 216.42C352.743 216.131 353.717 217.282 353.824 217.384C353.397 216.012 353.235 214.571 353.347 213.138C353.415 211.873 352.999 210.629 352.185 209.658C355.569 201.358 363.199 208.309 363.199 208.309C363.199 208.309 364.066 212.85 363.299 214.584C362.532 216.318 364.07 219.997 363.877 220.961C363.684 221.925 364.262 223.569 364.262 225.405C364.058 227.749 363.538 230.055 362.715 232.259C362.131 233.801 357.5 237.281 357.5 237.281C357.5 237.281 357.211 242.791 355.181 245.981C353.151 249.171 354.351 260.081 354.351 260.081C354.351 260.081 356.284 268.6 358.715 271.325C361.146 274.05 364.681 289.456 364.681 289.456Z" fill="#656691"/>
<path opacity="0.1" d="M313.011 225.902C313.011 225.902 311.94 222.716 310.982 222.427C310.021 222.071 309.086 221.651 308.182 221.169L308.803 219.98C308.803 219.98 312.428 220.98 313.012 222.036C313.596 223.092 313.011 225.902 313.011 225.902Z" fill="black"/>
<path opacity="0.1" d="M293.595 218.846C293.402 219.81 284.803 220.683 284.803 220.683L289.151 216.324L289.258 216.361C290.816 216.975 292.277 217.812 293.595 218.846Z" fill="black"/>
<path d="M268.718 206.366C269.144 206.366 269.489 206.021 269.489 205.595C269.489 205.169 269.144 204.824 268.718 204.824C268.292 204.824 267.947 205.169 267.947 205.595C267.947 206.021 268.292 206.366 268.718 206.366Z" fill="#575988"/>
<path d="M269.709 207.913C270.134 207.913 270.48 207.568 270.48 207.142C270.48 206.716 270.134 206.371 269.709 206.371C269.283 206.371 268.938 206.716 268.938 207.142C268.938 207.568 269.283 207.913 269.709 207.913Z" fill="#575988"/>
<path d="M270.677 209.337C271.103 209.337 271.448 208.992 271.448 208.566C271.448 208.14 271.103 207.795 270.677 207.795C270.251 207.795 269.906 208.14 269.906 208.566C269.906 208.992 270.251 209.337 270.677 209.337Z" fill="#575988"/>
<path d="M271.689 210.884C272.115 210.884 272.46 210.539 272.46 210.113C272.46 209.687 272.115 209.342 271.689 209.342C271.263 209.342 270.918 209.687 270.918 210.113C270.918 210.539 271.263 210.884 271.689 210.884Z" fill="#575988"/>
<path d="M362.737 210.652C363.083 210.652 363.363 210.372 363.363 210.026C363.363 209.681 363.083 209.4 362.737 209.4C362.392 209.4 362.111 209.681 362.111 210.026C362.111 210.372 362.392 210.652 362.737 210.652Z" fill="#575988"/>
<path d="M362.833 212.078C363.179 212.078 363.459 211.798 363.459 211.452C363.459 211.106 363.179 210.826 362.833 210.826C362.487 210.826 362.207 211.106 362.207 211.452C362.207 211.798 362.487 212.078 362.833 212.078Z" fill="#575988"/>
<path d="M362.919 213.502C363.265 213.502 363.545 213.222 363.545 212.876C363.545 212.53 363.265 212.25 362.919 212.25C362.573 212.25 362.293 212.53 362.293 212.876C362.293 213.222 362.573 213.502 362.919 213.502Z" fill="#575988"/>
<path opacity="0.1" d="M313.059 252.077C312.968 251.965 334.739 279.46 351.644 263.577C351.643 263.573 324.935 267.192 313.059 252.077Z" fill="black"/>
<path opacity="0.1" d="M300.551 266.373C300.551 266.373 313.578 266.726 314.938 270.473V274.373C314.568 274.579 314.151 274.687 313.728 274.687C313.304 274.687 312.888 274.579 312.518 274.373C311.206 273.661 303.324 269.661 300.551 271.583V266.373Z" fill="black"/>
<path d="M300.791 266.373C300.791 266.373 313.251 266.71 314.552 270.287V273.998C314.197 274.195 313.799 274.298 313.393 274.298C312.987 274.298 312.589 274.195 312.234 273.998C310.981 273.323 303.447 269.506 300.791 271.321V266.373Z" fill="#656691"/>
<path opacity="0.1" d="M307.662 238.08C308.993 241.161 310.689 244.071 312.711 246.749C314.917 249.709 317.59 252.29 320.625 254.39C320.625 254.39 307.876 239.874 307.662 238.08Z" fill="black"/>
<path opacity="0.1" d="M303.398 222.941C303.398 222.941 305.572 232.322 311.173 235.513L303.398 222.941Z" fill="black"/>
<path opacity="0.1" d="M300.06 223.892C300.006 223.721 298.132 231.313 307.283 235.517C307.307 235.516 303.398 234.194 300.06 223.892Z" fill="black"/>
<path opacity="0.1" d="M356.954 217.6C356.809 217.6 361.473 220.566 362.737 221.942C362.737 221.942 359.706 217.407 356.954 217.6Z" fill="black"/>
<path d="M327.478 211.114C327.57 211.727 327.892 212.282 328.378 212.667C328.712 212.826 329.078 212.908 329.449 212.908C332.956 213.122 336.603 213.277 339.842 211.928C340.455 211.717 341.007 211.359 341.448 210.884C341.93 210.11 342.244 209.244 342.369 208.341C342.951 206.658 343.668 205.026 344.511 203.458C345.685 200.695 346.078 197.663 345.646 194.693C345.561 193.781 345.262 192.902 344.773 192.128C343.841 190.8 342.149 190.265 340.918 189.21C339.687 188.155 338.9 186.533 337.464 185.74C336.102 185.129 334.575 184.993 333.127 185.354C330.241 185.837 327.475 186.869 324.978 188.395C324.225 189.014 323.275 189.341 322.301 189.316C321.481 189.052 320.777 188.513 320.309 187.79C319.626 189.366 319.332 191.082 319.452 192.796C319.495 193.046 319.495 193.301 319.452 193.551C319.331 193.852 319.149 194.124 318.917 194.351C318.05 195.351 317.509 196.943 318.381 197.951C318.751 198.395 319.323 198.636 319.687 199.086C320.335 199.894 320.115 201.051 320.099 202.086C320.062 202.444 320.153 202.805 320.356 203.103C320.543 203.276 320.772 203.399 321.021 203.458C321.269 203.517 321.529 203.511 321.775 203.44C322.264 203.294 322.777 203.245 323.285 203.295C323.825 203.472 324.288 203.829 324.597 204.307C326.003 206.36 326.983 208.675 327.478 211.114Z" fill="#2D293D"/>
<g opacity="0.1">
<path opacity="0.1" d="M341.815 209.995C341.379 210.482 340.826 210.85 340.209 211.066C336.996 212.415 333.323 212.26 329.816 212.04C329.445 212.046 329.078 211.964 328.745 211.799C328.258 211.415 327.936 210.86 327.845 210.246C327.353 207.802 326.355 205.488 324.916 203.451C324.608 202.974 324.145 202.617 323.604 202.439C323.096 202.387 322.583 202.436 322.094 202.584C321.852 202.651 321.596 202.654 321.351 202.596C321.106 202.537 320.88 202.417 320.694 202.247C320.491 201.947 320.4 201.585 320.437 201.224C320.437 200.191 320.673 199.024 320.025 198.224C319.661 197.769 319.093 197.533 318.718 197.089C318.477 196.76 318.329 196.372 318.289 195.966C318.249 195.56 318.32 195.151 318.493 194.781C318.148 195.213 317.947 195.742 317.918 196.295C317.889 196.847 318.034 197.395 318.332 197.86C318.701 198.304 319.274 198.545 319.638 198.995C320.286 199.804 320.066 200.96 320.05 201.995C320.014 202.354 320.105 202.714 320.307 203.012C320.495 203.186 320.724 203.308 320.973 203.367C321.221 203.426 321.481 203.42 321.726 203.349C322.216 203.203 322.728 203.154 323.236 203.204C323.777 203.381 324.24 203.739 324.548 204.216C325.982 206.257 326.979 208.572 327.477 211.016C327.479 211.267 327.533 211.516 327.636 211.745C327.739 211.974 327.888 212.18 328.074 212.348C328.26 212.517 328.479 212.645 328.718 212.724C328.956 212.804 329.208 212.833 329.458 212.81C332.965 213.024 336.612 213.179 339.851 211.83C340.465 211.62 341.016 211.261 341.457 210.786C341.677 210.507 341.846 210.192 341.957 209.854C341.913 209.904 341.866 209.951 341.815 209.995Z" fill="black"/>
<path opacity="0.1" d="M319.451 193.248C319.608 193.082 319.729 192.885 319.804 192.67C319.847 192.42 319.847 192.165 319.804 191.915C319.705 190.506 319.887 189.092 320.339 187.755L320.275 187.68C319.589 189.255 319.295 190.972 319.418 192.686C319.445 192.872 319.456 193.06 319.451 193.248Z" fill="black"/>
</g>
<path opacity="0.1" d="M325.428 218.081C325.428 218.081 339.789 219.981 341.079 217.824L325.428 218.081Z" fill="black"/>
<path opacity="0.1" d="M353.355 212.137C353.355 212.137 361.328 212.137 363.084 215.137L353.355 212.137Z" fill="black"/>
<defs>
<linearGradient id="paint0_linear" x1="489.738" y1="236.964" x2="489.738" y2="24.416" gradientUnits="userSpaceOnUse">
<stop stop-color="#808080" stop-opacity="0.251"/>
<stop offset="0.54" stop-color="#808080" stop-opacity="0.122"/>
<stop offset="1" stop-color="#808080" stop-opacity="0.102"/>
</linearGradient>
<linearGradient id="paint1_linear" x1="314.881" y1="423.334" x2="314.881" y2="181.949" gradientUnits="userSpaceOnUse">
<stop stop-color="#808080" stop-opacity="0.251"/>
<stop offset="0.54" stop-color="#808080" stop-opacity="0.122"/>
<stop offset="1" stop-color="#808080" stop-opacity="0.102"/>
</linearGradient>
</defs>
</svg>
